<svg width="1920" height="1287" fill="none" xmlns="http://www.w3.org/2000/svg"><g opacity=".25"><mask id="a" style="mask-type:alpha" maskUnits="userSpaceOnUse" x="0" y="0" width="1920" height="1287"><path fill="url(#paint0_radial)" d="M0 0h1920v1287H0z"/></mask><g mask="url(#a)"><path transform="rotate(28.678 701.605 82.28)" fill="url(#paint1_linear)" d="M701.605 82.279h277.354v1502.24H701.605z"/><path transform="rotate(28.678 189.916 -143)" fill="url(#paint2_linear)" d="M189.916-143H467.27v1502.24H189.916z"/><path transform="rotate(28.678 509.916 -147)" fill="url(#paint3_linear)" d="M509.916-147H787.27v1502.24H509.916z"/><path transform="rotate(-152.198 1266.78 1338.23)" fill="url(#paint4_linear)" d="M1266.78 1338.23h215.091v1502.24H1266.78z"/><path transform="rotate(-152.198 1666 1545)" fill="url(#paint5_linear)" d="M1666 1545h277.354v1502.24H1666z"/><path transform="rotate(-152.198 1431.45 1389.9)" fill="url(#paint6_linear)" d="M1431.45 1389.9h168.676v1502.24H1431.45z"/></g></g><defs><linearGradient id="paint1_linear" x1="840.282" y1="82.279" x2="872.693" y2="1332.02" gradientUnits="userSpaceOnUse"><stop stop-color="#FF481B" stop-opacity="0"/><stop offset="1" stop-color="#F30"/></linearGradient><linearGradient id="paint2_linear" x1="328.593" y1="-143" x2="361.003" y2="1106.74" gradientUnits="userSpaceOnUse"><stop stop-color="#FF481B" stop-opacity="0"/><stop offset="1" stop-color="#F30"/></linearGradient><linearGradient id="paint3_linear" x1="648.593" y1="-147" x2="681.003" y2="1102.74" gradientUnits="userSpaceOnUse"><stop stop-color="#F30"/><stop offset="1" stop-color="#FF481B" stop-opacity="0"/></linearGradient><linearGradient id="paint4_linear" x1="1374.33" y1="1338.23" x2="1416.1" y2="2587.42" gradientUnits="userSpaceOnUse"><stop stop-color="#FF481B" stop-opacity="0"/><stop offset="1" stop-color="#F30"/></linearGradient><linearGradient id="paint5_linear" x1="1804.68" y1="1545" x2="1837.09" y2="2794.74" gradientUnits="userSpaceOnUse"><stop stop-color="#FF481B" stop-opacity="0"/><stop offset="1" stop-color="#F30"/></linearGradient><linearGradient id="paint6_linear" x1="1515.78" y1="1389.9" x2="1569.02" y2="2638.21" gradientUnits="userSpaceOnUse"><stop stop-color="#F30"/><stop offset="1" stop-color="#FF481B" stop-opacity="0"/></linearGradient><radialGradient id="paint0_radial" cx="0" cy="0" r="1" gradientUnits="userSpaceOnUse" gradientTransform="matrix(0 756.13 -1128.03 0 960 643.5)"><stop stop-color="#FFA300"/><stop offset="1" stop-color="#FF4200"/></radialGradient></defs></svg>