<svg width="118" height="84" fill="none" xmlns="http://www.w3.org/2000/svg"><path d="M0 40.893c1.843-5.724 3.687-11.417 5.53-17.141 1.997-6.284 3.994-12.568 5.99-18.82 1.137-3.61 4.025-5.102 7.589-3.92 2.55.84 5.1 1.742 7.65 2.488 2.457.747 3.962 2.271 4.423 4.884 2.673.374 5.253-.217 7.834-.746 4.485-.933 8.97-1.4 13.364.342 1.29.498 2.488 1.213 3.748 1.773.337.156.921.187 1.198 0 5.806-3.515 11.797-3.67 18.002-1.213 2.52.995 5.07 1.96 7.68 2.769.8.248 1.782.03 2.735.03-.154-.84-.307-1.461-.338-2.052-.184-2.396 1.044-4.605 3.256-5.507 3.072-1.244 6.144-2.426 9.278-3.484 2.888-.995 5.745.591 6.882 3.671 2.549 6.937 5.099 13.905 7.649 20.843 1.843 4.977 3.687 9.954 5.53 14.9v2.085c-.707 2.582-2.427 3.982-4.885 4.76-2.304.715-4.546 1.68-6.789 2.52-3.472 1.306-6.052.248-7.68-3.143-.062-.124-.154-.249-.492-.31.03.373.03.777.062 1.15.184 1.929-.062 3.796-1.045 5.506-1.444 2.582-3.994 3.702-6.85 3.05a11.47 11.47 0 01-1.107-.28c.215 2.954-.645 5.443-2.949 7.247-2.304 1.805-4.885 2.053-7.619 1.214-.491 5.848-2.734 8.306-8.11 8.865.307 2.925-.523 5.476-3.042 7.156-2.58 1.71-5.1 1.12-7.618-.436-1.629 3.08-3.748 5.382-7.435 4.822-3.502-.498-5.56-2.862-6.759-6.253-2.058.84-4.147 1.026-6.236.156-2.058-.871-3.44-2.396-4.24-4.542-3.04 1.773-6.02 1.866-8.817-.25-2.672-2.021-3.348-4.883-2.734-8.118-.83-.094-1.69-.094-2.488-.25-4.793-1.026-7.312-6.159-5.223-10.67.584-1.275 1.29-2.457 1.936-3.701.184-.374.276-.84.522-1.525-.492.249-.676.311-.83.436-1.505 1.089-3.164 1.4-4.915.84-3.01-.934-5.99-1.93-8.97-2.925C1.69 46.43.645 44.874.03 42.946 0 42.293 0 41.608 0 40.893zm55.974 24.762c0-.062.03-.156.03-.218-.245-.155-.522-.31-.767-.466-.83-.591-1.045-1.462-.553-2.209.522-.809 1.26-.995 2.12-.591.491.218.952.498 1.413.746 3.471 1.867 6.973 3.765 10.445 5.631 1.628.871 3.256.809 4.792-.249 1.444-1.026 2.059-2.457 1.874-4.23-.184-1.805-1.26-2.956-2.765-3.765-2.61-1.4-5.222-2.8-7.803-4.23-.921-.498-1.843-.965-2.734-1.525-.737-.466-.983-1.182-.614-2.022.399-.902 1.167-1.089 2.027-.809.338.094.615.312.922.467 4.854 2.644 9.739 5.289 14.592 7.933 1.26.684 2.55.902 3.871.435 1.813-.622 2.888-1.897 3.103-3.826.215-2.053-.584-3.64-2.396-4.635-4.67-2.582-9.37-5.164-14.04-7.715-.368-.218-.89-.373-1.013-.716-.216-.59-.43-1.337-.246-1.897.246-.747 1.014-1.027 1.812-.716.308.125.615.28.922.467 4.393 2.395 8.755 4.822 13.149 7.217 1.996 1.089 3.963 2.209 6.02 3.173 2.12 1.027 3.81.249 4.548-1.99.737-2.24.491-4.418-1.321-5.974-1.936-1.648-3.994-3.204-6.175-4.417-4.824-2.706-9.892-4.977-14.654-7.808-2.796-1.68-5.438-1.898-8.326-.902-3.164 1.057-6.267 2.302-9.493 3.204-4.577 1.306-8.878.809-12.565-2.645-3.102-2.924-3.317-3.826-.43-6.937 3.595-3.92 7.435-7.59 11.152-11.354.277-.28.584-.56.953-.902-.277-.156-.4-.28-.584-.343-3.718-1.928-7.62-2.146-11.674-1.4-3.441.623-6.82 1.525-10.353 1.307-.246-.031-.707.405-.799.716-2.98 9.301-5.99 18.602-8.879 27.935-.43 1.431-.491 2.986-.737 4.48 2.704-1.93 5.407-2.738 8.326-1.462 2.887 1.275 4.454 3.67 4.884 6.812 5.991-.218 7.65 1.027 9.616 7.249 2.55-.56 4.885-.094 6.882 1.648 1.996 1.742 2.703 4.075 2.58 6.595 1.014-.062 1.966-.062 2.888-.062zm30.998-51.422c-2.642.964-5.039.373-7.404-.498-1.843-.684-3.625-1.462-5.438-2.209-6.175-2.52-12.012-1.835-17.08 2.427-4.21 3.515-7.958 7.528-11.89 11.354-.737.716-1.352 1.556-1.997 2.334 2.857 3.608 6.452 4.48 10.507 3.297 3.041-.871 6.021-2.084 9.032-3.08 2.458-.809 5.007-1.462 7.557-.715 1.506.435 2.888 1.337 4.332 2.084 4.117 2.115 8.233 4.169 12.288 6.346 3.318 1.804 6.575 3.671 9.217 6.502.215.249.584.373.89.529 0-.374.124-.778 0-1.12-1.935-5.35-3.9-10.702-5.867-16.052-1.382-3.64-2.734-7.342-4.147-11.2zm28.048 26.909c-.061-.094-.123-.156-.184-.25-.123-.435-.215-.901-.369-1.337-4.178-11.417-8.387-22.834-12.596-34.281-.675-1.867-1.751-2.365-3.594-1.68-2.458.902-4.885 1.835-7.342 2.737-2.366.871-2.796 1.804-1.936 4.169 2.458 6.688 4.916 13.407 7.373 20.096 1.72 4.666 3.41 9.301 5.131 13.967.583 1.556 1.628 2.24 3.01 1.743 2.98-1.058 5.93-2.116 8.817-3.36.707-.28 1.137-1.182 1.69-1.804zm-111.794.466c-.062 1.369.522 2.178 1.782 2.613 2.734.934 5.468 1.805 8.202 2.707 1.782.56 2.826 0 3.44-1.836 3.687-11.603 7.405-23.206 11.091-34.779.615-1.96.092-3.017-1.843-3.67-2.52-.84-5.038-1.65-7.558-2.458-2.15-.716-3.133-.218-3.84 1.96A45833.091 45833.091 0 003.533 40.457c-.154.436-.246.902-.307 1.151zm23.317 25.447c.154 2.146 1.321 3.67 3.318 4.23 1.935.53 3.87-.28 4.885-2.115a528.03 528.03 0 004.884-9.239c1.23-2.364.492-4.977-1.659-6.128-2.18-1.182-4.67-.311-5.929 2.053a493.12 493.12 0 00-4.7 8.928c-.4.684-.553 1.493-.799 2.271zm-3.38-5.35c1.107 0 2.428-.654 3.227-2.085 1.351-2.426 2.672-4.884 3.901-7.404 1.045-2.146.123-4.573-2.058-5.724-1.843-.964-4.332-.31-5.438 1.587-1.413 2.457-2.765 4.946-3.963 7.497-1.382 2.862.707 6.066 4.332 6.128zm19.11 13.532c1.535 0 2.826-.592 3.594-1.93a97.528 97.528 0 003.625-6.874c.952-2.022.03-4.449-1.905-5.506-1.997-1.09-4.485-.467-5.653 1.524-1.26 2.178-2.457 4.386-3.502 6.657a4.278 4.278 0 003.84 6.129zm10.967 5.599c1.29.031 2.273-.591 2.857-1.649a53.387 53.387 0 002.734-5.475c.46-1.026.4-2.115-.4-3.048-2.211-2.614-6.02-2.334-7.802.622a36.672 36.672 0 00-1.537 2.862c-1.29 2.8 1.076 6.626 4.148 6.688zm8.11-4.573c.338.218.584.342.799.467 1.966 1.057 3.594.746 4.639-.871 1.106-1.711.768-3.858-.983-5.009-1.751-1.15-3.625-2.053-5.469-3.08 2.55 2.583 2.305 5.444 1.014 8.493z" fill="#FA0000"/></svg>