<svg width="50" height="50" fill="none" xmlns="http://www.w3.org/2000/svg"><path d="M26.667 43.333H40a2.5 2.5 0 002.5-2.5V29.167a2.5 2.5 0 00-2.5-2.5H26.667a2.5 2.5 0 00-2.5 2.5v11.666a2.5 2.5 0 002.5 2.5zm-.834-14.166a.833.833 0 01.834-.834H40a.833.833 0 01.833.834v11.666a.834.834 0 01-.833.834H26.667a.833.833 0 01-.834-.834V29.167z" fill="#FA0000"/><path d="M37.5 34.167h1.667v-3.334a.833.833 0 00-.834-.833H35v1.667h2.5v2.5zM18.333 37.5h-1.666v1.667h1.666V37.5z" fill="#FA0000"/><path d="M47.5 45h-1.667V24.917a4.182 4.182 0 003.334-4.084.556.556 0 00-.009-.116l-1.466-10.234a2.5 2.5 0 00-2.467-2.15h-6.058V2.5a2.507 2.507 0 00-2.5-2.5H13.333a2.507 2.507 0 00-2.5 2.5v5.833H4.775a2.5 2.5 0 00-2.467 2.15L.842 20.717a.55.55 0 00-.009.116 4.18 4.18 0 003.334 4.084V45H2.5a2.5 2.5 0 000 5h45a2.5 2.5 0 000-5zm-5-35h2.725a.841.841 0 01.825.717l1.45 10.175a2.5 2.5 0 11-5-.059V10zm-3.333 7.5V10h1.666v10.833a2.5 2.5 0 11-5 0V20h.834a2.507 2.507 0 002.5-2.5zM12.5 2.5a.833.833 0 01.833-.833h23.334a.833.833 0 01.833.833v15a.833.833 0 01-.833.833H13.333a.834.834 0 01-.833-.833v-15zM34.167 20v.833a2.5 2.5 0 11-5 0V20h5zM27.5 20v.833a2.5 2.5 0 11-5 0V20h5zm-6.667 0v.833a2.5 2.5 0 11-5 0V20h5zM9.167 10h1.666v7.5a2.507 2.507 0 002.5 2.5h.834v.833a2.5 2.5 0 11-5 0V10zm-.834 13.333a4.167 4.167 0 006.667 0 4.167 4.167 0 006.667 0 4.166 4.166 0 006.666 0 4.167 4.167 0 006.667 0 4.167 4.167 0 006.667 0 4.16 4.16 0 002.5 1.575V45H20.833V33.333a6.666 6.666 0 10-13.333 0V45H5.833V24.908a4.161 4.161 0 002.5-1.575zm10.834 10V45h-10V33.333a5 5 0 0110 0zM2.5 20.892l1.45-10.175A.84.84 0 014.775 10H7.5v10.833a2.5 2.5 0 01-5 .059zm45 27.441h-45a.834.834 0 010-1.666h45a.834.834 0 010 1.666z" fill="#FA0000"/><path d="M33.333 8.333H32.5v-2.5a2.508 2.508 0 00-2.5-2.5H20a2.508 2.508 0 00-2.5 2.5v2.5h-.833a2.507 2.507 0 00-2.5 2.5v3.334A.834.834 0 0015 15h2.65a2.49 2.49 0 004.7 0h5.3a2.49 2.49 0 004.7 0H35a.833.833 0 00.833-.833v-3.334a2.507 2.507 0 00-2.5-2.5zM25.833 5H30a.833.833 0 01.833.833v2.5h-5V5zm-6.666.833A.834.834 0 0120 5h4.167v3.333h-5v-2.5zM20 15a.834.834 0 110-1.668A.834.834 0 0120 15zm10 0a.834.834 0 110-1.668A.834.834 0 0130 15zm4.167-1.667H32.35a2.49 2.49 0 00-4.7 0h-5.3a2.49 2.49 0 00-4.7 0h-1.817v-2.5a.833.833 0 01.834-.833h16.666a.833.833 0 01.834.833v2.5z" fill="#FA0000"/></svg>