<svg width="54" height="37" fill="none" xmlns="http://www.w3.org/2000/svg"><path d="M53.1 28.878h-.9v-9.927a8.142 8.142 0 00-2.375-5.74 8.098 8.098 0 00-5.725-2.382h-6.3V.902A.904.904 0 0036.9 0H.9a.899.899 0 00-.9.902v28.879a.904.904 0 00.9.902h.9v.902c0 .718.284 1.407.79 1.915a2.696 2.696 0 001.91.793h4.33a5.376 5.376 0 009.338 0h21.263a5.376 5.376 0 009.338 0H51.3a2.698 2.698 0 002.7-2.708v-1.804a.904.904 0 00-.9-.903zm-2.7-9.927v1.805h-8.1a.899.899 0 01-.9-.902v-7.22h2.7a6.299 6.299 0 014.453 1.852 6.333 6.333 0 011.847 4.465zm-10.8-6.317v7.22c0 .718.285 1.406.79 1.914a2.696 2.696 0 001.91.793h8.1v6.317h-1.63a5.376 5.376 0 00-9.338 0H37.8V12.634h1.8zM18.17 28.878a5.376 5.376 0 00-9.338 0H1.799v-3.61H36v3.61H18.17zM1.8 1.805H36v21.659H1.8V1.803zm2.7 30.683a.899.899 0 01-.9-.902v-.903h4.581a5.067 5.067 0 000 1.805H4.5zm9 2.707a3.594 3.594 0 01-3.326-2.228 3.62 3.62 0 01.78-3.934 3.597 3.597 0 013.924-.783 3.616 3.616 0 011.168 5.887 3.595 3.595 0 01-2.546 1.058zm5.319-2.707a5.068 5.068 0 000-1.805h19.962a5.068 5.068 0 000 1.805H18.819zM44.1 35.195a3.594 3.594 0 01-3.326-2.228 3.62 3.62 0 01.78-3.934 3.597 3.597 0 013.924-.783 3.616 3.616 0 011.168 5.887 3.595 3.595 0 01-2.546 1.058zm8.1-3.61a.904.904 0 01-.9.903h-1.881a5.068 5.068 0 000-1.805H52.2v.902z" fill="#FA0000"/><path d="M7.2 15.341a.899.899 0 00.9-.902v-2.707h1.8a.899.899 0 00.9-.903.904.904 0 00-.9-.902H8.1V8.122h2.7a.899.899 0 00.9-.902.904.904 0 00-.9-.903H7.2a.899.899 0 00-.9.903v7.22a.904.904 0 00.9.902zm6.3 0a.899.899 0 00.9-.902v-2.105l1.98 2.646a.9.9 0 001.611-.413.905.905 0 00-.171-.67l-1.72-2.3a2.694 2.694 0 001.486-1.144 2.706 2.706 0 00-.527-3.485 2.688 2.688 0 00-1.759-.65h-1.8a.899.899 0 00-.9.902v7.22a.904.904 0 00.9.902zm2.7-6.317a.904.904 0 01-.9.903h-.9V8.122h.9a.899.899 0 01.9.902zm4.5 6.317h3.6a.899.899 0 00.9-.902.904.904 0 00-.9-.902h-2.7v-1.805h1.8a.899.899 0 00.9-.903.904.904 0 00-.9-.902h-1.8V8.122h2.7a.899.899 0 00.9-.902.904.904 0 00-.9-.903h-3.6a.899.899 0 00-.9.903v7.22a.904.904 0 00.9.902zm6.3 0h3.6a.899.899 0 00.9-.902.904.904 0 00-.9-.902h-2.7v-1.805h1.8a.899.899 0 00.9-.903.904.904 0 00-.9-.902h-1.8V8.122h2.7a.899.899 0 00.9-.902.904.904 0 00-.9-.903H27a.899.899 0 00-.9.903v7.22a.904.904 0 00.9.902zm6.3 1.805H4.5a.899.899 0 00-.9.903.904.904 0 00.9.902h28.8a.899.899 0 00.9-.902.904.904 0 00-.9-.903z" fill="#FA0000"/></svg>