<svg width="32" height="32" fill="none" xmlns="http://www.w3.org/2000/svg"><path d="M16 1C7.716 1 1 7.716 1 16c0 8.284 6.716 15 15 15 8.284 0 15-6.716 15-15 0-8.284-6.716-15-15-15zm0 28.5C8.556 29.5 2.5 23.444 2.5 16S8.556 2.5 16 2.5 29.5 8.556 29.5 16 23.444 29.5 16 29.5z" fill="#FB1100"/><path d="M19.706 8.007c-.811-.702-1.858-1.054-3.139-1.054h-.258c-1.329 0-2.461.414-3.399 1.242-1.031.923-1.546 2.156-1.546 3.703 0 .25.07.446.21.586a.66.66 0 00.516.164c.188 0 .351-.07.492-.211a.766.766 0 00.234-.563c0-.874.204-1.632.61-2.273.594-.905 1.554-1.36 2.883-1.36 1.125 0 1.976.305 2.554.915.485.5.735 1.148.75 1.945 0 .703-.148 1.329-.445 1.875-.344.625-.96 1.313-1.851 2.063-.75.609-1.274 1.289-1.57 2.039-.298.719-.446 1.633-.446 2.742 0 .219.07.398.21.539a.75.75 0 00.516.187.713.713 0 00.492-.187.693.693 0 00.235-.54c0-1.092.132-1.936.398-2.53.265-.563.781-1.157 1.547-1.782.844-.718 1.453-1.414 1.828-2.086.36-.657.54-1.39.54-2.203-.001-1.374-.454-2.445-1.36-3.211zM16 25a1.5 1.5 0 100-3 1.5 1.5 0 000 3z" fill="#FB1100"/><path d="M16 1C7.716 1 1 7.716 1 16c0 8.284 6.716 15 15 15 8.284 0 15-6.716 15-15 0-8.284-6.716-15-15-15zm0 28.5C8.556 29.5 2.5 23.444 2.5 16S8.556 2.5 16 2.5 29.5 8.556 29.5 16 23.444 29.5 16 29.5z" stroke="#FB1100" stroke-width=".5"/><path d="M19.706 8.007c-.811-.702-1.858-1.054-3.139-1.054h-.258c-1.329 0-2.461.414-3.399 1.242-1.031.923-1.546 2.156-1.546 3.703 0 .25.07.446.21.586a.66.66 0 00.516.164c.188 0 .351-.07.492-.211a.766.766 0 00.234-.563c0-.874.204-1.632.61-2.273.594-.905 1.554-1.36 2.883-1.36 1.125 0 1.976.305 2.554.915.485.5.735 1.148.75 1.945 0 .703-.148 1.329-.445 1.875-.344.625-.96 1.313-1.851 2.063-.75.609-1.274 1.289-1.57 2.039-.298.719-.446 1.633-.446 2.742 0 .219.07.398.21.539a.75.75 0 00.516.187.713.713 0 00.492-.187.693.693 0 00.235-.54c0-1.092.132-1.936.398-2.53.265-.563.781-1.157 1.547-1.782.844-.718 1.453-1.414 1.828-2.086.36-.657.54-1.39.54-2.203-.001-1.374-.454-2.445-1.36-3.211zM16 25a1.5 1.5 0 100-3 1.5 1.5 0 000 3z" stroke="#FB1100" stroke-width=".5"/></svg>