<svg width="1920" height="1287" viewBox="0 0 1920 1287" fill="none" xmlns="http://www.w3.org/2000/svg">
<g opacity="0.25">
<mask id="mask0" style="mask-type:alpha" maskUnits="userSpaceOnUse" x="0" y="0" width="1920" height="1287">
<rect width="1920" height="1287" fill="url(#paint0_radial)"/>
</mask>
<g mask="url(#mask0)">
<rect x="701.605" y="82.2791" width="277.354" height="1502.24" transform="rotate(28.6785 701.605 82.2791)" fill="url(#paint1_linear)"/>
<rect x="189.916" y="-143" width="277.354" height="1502.24" transform="rotate(28.6785 189.916 -143)" fill="url(#paint2_linear)"/>
<rect x="509.916" y="-147" width="277.354" height="1502.24" transform="rotate(28.6785 509.916 -147)" fill="url(#paint3_linear)"/>
<rect x="1266.78" y="1338.23" width="215.091" height="1502.24" transform="rotate(-152.198 1266.78 1338.23)" fill="url(#paint4_linear)"/>
<rect x="1666" y="1545" width="277.354" height="1502.24" transform="rotate(-152.198 1666 1545)" fill="url(#paint5_linear)"/>
<rect x="1431.45" y="1389.9" width="168.676" height="1502.24" transform="rotate(-152.198 1431.45 1389.9)" fill="url(#paint6_linear)"/>
</g>
</g>
<defs>
<radialGradient id="paint0_radial" cx="0" cy="0" r="1" gradientUnits="userSpaceOnUse" gradientTransform="translate(960 643.5) rotate(90) scale(756.13 1128.03)">
<stop stop-color="#FFA300"/>
<stop offset="1" stop-color="#FF4200"/>
</radialGradient>
<linearGradient id="paint1_linear" x1="840.282" y1="82.2791" x2="872.693" y2="1332.02" gradientUnits="userSpaceOnUse">
<stop stop-color="#FF481B" stop-opacity="0"/>
<stop offset="1" stop-color="#FF3300"/>
</linearGradient>
<linearGradient id="paint2_linear" x1="328.593" y1="-143" x2="361.003" y2="1106.74" gradientUnits="userSpaceOnUse">
<stop stop-color="#FF481B" stop-opacity="0"/>
<stop offset="1" stop-color="#FF3300"/>
</linearGradient>
<linearGradient id="paint3_linear" x1="648.593" y1="-147" x2="681.003" y2="1102.74" gradientUnits="userSpaceOnUse">
<stop stop-color="#FF3300"/>
<stop offset="1" stop-color="#FF481B" stop-opacity="0"/>
</linearGradient>
<linearGradient id="paint4_linear" x1="1374.33" y1="1338.23" x2="1416.1" y2="2587.42" gradientUnits="userSpaceOnUse">
<stop stop-color="#FF481B" stop-opacity="0"/>
<stop offset="1" stop-color="#FF3300"/>
</linearGradient>
<linearGradient id="paint5_linear" x1="1804.68" y1="1545" x2="1837.09" y2="2794.74" gradientUnits="userSpaceOnUse">
<stop stop-color="#FF481B" stop-opacity="0"/>
<stop offset="1" stop-color="#FF3300"/>
</linearGradient>
<linearGradient id="paint6_linear" x1="1515.78" y1="1389.9" x2="1569.02" y2="2638.21" gradientUnits="userSpaceOnUse">
<stop stop-color="#FF3300"/>
<stop offset="1" stop-color="#FF481B" stop-opacity="0"/>
</linearGradient>
</defs>
</svg>
