<svg width="737" height="584" viewBox="0 0 737 584" fill="none" xmlns="http://www.w3.org/2000/svg">
<path fill-rule="evenodd" clip-rule="evenodd" d="M186.87 186.085L167.314 189.769L159.094 207.904L149.458 190.619L129.618 188.635L143.506 173.9L139.255 154.63L157.11 163.131L174.399 152.93L171.849 172.766L186.87 186.085Z" fill="#FFE5E3"/>
<path fill-rule="evenodd" clip-rule="evenodd" d="M500.056 27.1115L506.858 16.6266L502.04 5.00823L513.944 8.12535L523.58 0.190857L524.147 12.6593L534.917 18.8936L523.297 23.4276L520.462 35.6127L512.526 25.978L500.056 27.1115Z" fill="#FFE5E3"/>
<path fill-rule="evenodd" clip-rule="evenodd" d="M686.551 313.036L670.679 312.47L661.326 324.938L657.074 309.919L642.053 304.819L655.09 296.034L655.374 280.448L667.845 290.083L682.866 285.266L677.481 300.001L686.551 313.036Z" fill="#FFE5E3"/>
<path fill-rule="evenodd" clip-rule="evenodd" d="M101.558 465.492L83.135 461.525L69.2471 474.843L67.2632 455.857L50.541 446.789L67.83 439.138L71.2311 420.435L83.9853 434.604L102.975 432.054L93.3384 448.489L101.558 465.492Z" fill="#FFE5E3"/>
<path fill-rule="evenodd" clip-rule="evenodd" d="M680.883 548.237L666.995 549.087L659.909 560.989L654.808 548.237L641.203 545.12L651.973 536.336L650.556 522.45L662.46 529.818L675.214 524.434L671.813 537.752L680.883 548.237Z" fill="#FFE5E3"/>
<path fill-rule="evenodd" clip-rule="evenodd" d="M230.801 579.409L214.929 574.024L201.608 583.943L201.891 567.223L188.287 557.589L204.158 552.771L208.977 536.902L218.613 550.504L235.335 550.221L225.415 563.54L230.801 579.409Z" fill="#FFE5E3"/>
<path fill-rule="evenodd" clip-rule="evenodd" d="M194.806 30.2285L205.86 18.8936L202.742 3.30795L216.913 10.1089L230.801 2.45783L228.534 18.0434L240.154 28.8117L224.566 31.6454L218.047 46.0975L210.678 31.9288L194.806 30.2285Z" fill="#FFE5E3"/>
<path fill-rule="evenodd" clip-rule="evenodd" d="M35.8035 292.067L23.3328 293.484L17.3808 304.535L12.2791 292.917L0.0917969 290.933L9.16144 282.432L7.46088 269.963L18.5145 276.198L29.5681 270.814L27.0173 282.999L35.8035 292.067Z" fill="#FFE5E3"/>
<path fill-rule="evenodd" clip-rule="evenodd" d="M661.608 84.0697L669.828 74.1516L666.143 61.6831L678.047 66.2171L688.817 59.1328L687.967 71.8846L698.17 79.8191L685.7 83.2196L681.448 95.4047L674.363 84.3531L661.608 84.0697Z" fill="#FFE5E3"/>
<path fill-rule="evenodd" clip-rule="evenodd" d="M533.783 203.087L542.569 191.752L538.035 178.15L551.639 182.684L562.976 174.466L562.693 188.635L574.313 197.136L560.709 201.103L556.457 214.705L548.238 203.087H533.783Z" fill="#FFE5E3"/>
<path fill-rule="evenodd" clip-rule="evenodd" d="M643.186 447.923L619.662 448.773L607.191 468.326L599.255 446.506L576.581 440.555L595.004 426.103L593.587 402.866L612.86 415.901L634.683 407.4L628.165 429.787L643.186 447.923Z" fill="#FFE5E3"/>
<path fill-rule="evenodd" clip-rule="evenodd" d="M59.8945 100.789H52.8088L48.5574 106.74L46.29 99.9387L39.4878 97.9551L45.4397 93.7045L45.1563 86.6201L51.1083 90.8707L57.6271 88.3204L55.6431 95.1213L59.8945 100.789Z" fill="#FFE5E3"/>
<path fill-rule="evenodd" clip-rule="evenodd" d="M717.16 377.079L721.412 371.695L719.711 365.177L726.23 367.728L731.898 363.76L731.615 370.845L737 375.095L730.198 376.796L727.647 383.313L723.962 377.362L717.16 377.079Z" fill="#FFE5E3"/>
<path fill-rule="evenodd" clip-rule="evenodd" d="M403.691 34.4792L396.605 33.0624L391.787 38.1631L390.653 31.0787L384.418 27.9616L390.937 24.8445L392.07 17.7601L396.889 22.8609L403.974 22.0107L400.573 28.245L403.691 34.4792Z" fill="#FFE5E3"/>
<path fill-rule="evenodd" clip-rule="evenodd" d="M247.239 476.827L240.437 475.41L235.335 480.511L234.201 473.426L227.966 470.026L234.485 467.192L235.618 460.108L240.437 465.209L247.522 464.075L244.121 470.309L247.239 476.827Z" fill="#FFE5E3"/>
<path fill-rule="evenodd" clip-rule="evenodd" d="M476.531 458.691L479.649 450.756L475.114 443.389L483.617 444.239L489.002 437.438L490.986 445.656L498.922 448.773L491.836 453.307L491.27 461.808L484.751 456.424L476.531 458.691Z" fill="#FFE5E3"/>
<path fill-rule="evenodd" clip-rule="evenodd" d="M551.64 90.304L547.672 90.5873L545.688 93.7044L544.27 90.304L540.586 89.4538L543.42 86.9035L543.137 83.2196L546.254 85.2032L549.939 83.503L549.089 87.1868L551.64 90.304Z" fill="#FFE5E3"/>
<path fill-rule="evenodd" clip-rule="evenodd" d="M118.847 317.287L119.414 310.486L114.312 306.235L120.831 304.818L123.382 298.584L126.783 304.252L133.585 304.818L129.05 309.919L130.467 316.437L124.515 313.603L118.847 317.287Z" fill="#FFE5E3"/>
<path fill-rule="evenodd" clip-rule="evenodd" d="M412.194 533.785L403.124 533.502L397.739 540.586L395.472 531.802L386.969 528.968L394.338 524.15L394.621 515.082L401.423 520.75L409.926 518.2L407.092 526.417L412.194 533.785Z" fill="#FFE5E3"/>
</svg>
