<svg width="118" height="84" viewBox="0 0 118 84" fill="none" xmlns="http://www.w3.org/2000/svg">
<path d="M0 40.8927C1.84327 35.1688 3.68654 29.4759 5.52981 23.752C7.52669 17.468 9.52356 11.1841 11.5204 4.93133C12.6571 1.32274 15.5449 -0.170462 19.1086 1.01166C21.6584 1.85159 24.2083 2.75374 26.7581 3.50034C29.2158 4.24694 30.7212 5.77126 31.182 8.38437C33.8547 8.75767 36.4353 8.16661 39.0159 7.63777C43.5012 6.70451 47.9865 6.23789 52.3796 7.97996C53.6699 8.4777 54.868 9.19319 56.1276 9.75314C56.4655 9.90869 57.0492 9.93979 57.3257 9.75314C63.132 6.23789 69.1226 6.08234 75.3283 8.53991C77.8474 9.53539 80.3973 10.4997 83.0086 11.3086C83.8074 11.5574 84.7904 11.3397 85.7428 11.3397C85.5892 10.4997 85.4356 9.87758 85.4048 9.28652C85.2205 6.89116 86.4494 4.68246 88.6613 3.78032C91.7334 2.53598 94.8055 1.35385 97.9391 0.296165C100.827 -0.699306 103.684 0.887226 104.821 3.96697C107.37 10.9042 109.92 17.8725 112.47 24.8096C114.313 29.787 116.157 34.7644 118 39.7106C118 40.395 118 41.1105 118 41.7949C117.293 44.3769 115.573 45.7768 113.115 46.5545C110.811 47.27 108.569 48.2343 106.326 49.0743C102.854 50.3808 100.274 49.3231 98.6457 45.9323C98.5842 45.8079 98.4921 45.6834 98.1541 45.6212C98.1849 45.9945 98.1849 46.3989 98.2156 46.7722C98.3999 48.701 98.1541 50.5675 97.171 52.2784C95.7271 54.8604 93.1773 55.9804 90.3202 55.3271C89.9823 55.2649 89.6444 55.1715 89.2143 55.0471C89.4293 58.0024 88.5691 60.4911 86.265 62.2954C83.9609 64.0997 81.3804 64.3485 78.6462 63.5086C78.1546 69.357 75.912 71.8146 70.5358 72.3745C70.843 75.2987 70.0135 77.8496 67.4944 79.5295C64.9138 81.2404 62.3947 80.6494 59.8756 79.0939C58.2473 82.1737 56.1276 84.4757 52.441 83.9158C48.9388 83.418 46.8805 81.0538 45.6824 77.663C43.6241 78.5029 41.535 78.6895 39.446 77.8185C37.3877 76.9475 36.0052 75.4231 35.2065 73.2767C32.1651 75.0499 29.1851 75.1432 26.3895 73.0278C23.7167 71.0057 23.0409 68.1438 23.6553 64.9085C22.8258 64.8152 21.9656 64.8152 21.1669 64.6596C16.3744 63.633 13.8552 58.5001 15.9443 53.9894C16.528 52.714 17.2346 51.5318 17.8797 50.2875C18.064 49.9142 18.1562 49.4476 18.402 48.7632C17.9104 49.012 17.7261 49.0743 17.5725 49.1987C16.0672 50.2875 14.4082 50.5986 12.6571 50.0386C9.64645 49.1054 6.66649 48.1099 3.68654 47.1144C1.68966 46.43 0.645145 44.8746 0.0307212 42.9459C0 42.2926 0 41.6082 0 40.8927ZM55.974 65.6551C55.974 65.5929 56.0047 65.4995 56.0047 65.4373C55.7589 65.2818 55.4824 65.1262 55.2367 64.9707C54.4072 64.3796 54.1921 63.5086 54.6837 62.762C55.2059 61.9532 55.9432 61.7665 56.8034 62.1709C57.295 62.3887 57.7558 62.6687 58.2166 62.9175C61.6881 64.784 65.1903 66.6817 68.6618 68.5482C70.29 69.4192 71.9183 69.357 73.4543 68.2993C74.8982 67.2727 75.5126 65.8417 75.3283 64.0686C75.144 62.2643 74.0687 61.1133 72.5634 60.3044C69.9521 58.9045 67.3408 57.5047 64.7602 56.0737C63.8386 55.5759 62.9169 55.1093 62.026 54.5494C61.2887 54.0827 61.043 53.3672 61.4116 52.5273C61.811 51.6252 62.579 51.4385 63.4392 51.7185C63.7771 51.8118 64.0536 52.0296 64.3608 52.1851C69.2148 54.8293 74.0995 57.4736 78.9534 60.1178C80.213 60.8022 81.5033 61.0199 82.8243 60.5533C84.6368 59.9311 85.7121 58.6557 85.9271 56.727C86.1422 54.6738 85.3434 53.0873 83.5309 52.0918C78.8612 49.5098 74.1609 46.9278 69.4913 44.3769C69.1226 44.1591 68.6004 44.0036 68.4775 43.6614C68.2624 43.0703 68.0474 42.3237 68.2317 41.7638C68.4775 41.0172 69.2455 40.7372 70.0443 41.0483C70.3515 41.1727 70.6587 41.3283 70.9659 41.5149C75.359 43.9103 79.7214 46.3367 84.1145 48.7321C86.1114 49.8209 88.0776 50.9408 90.1359 51.9051C92.2557 52.9317 93.9453 52.154 94.6826 49.9142C95.4199 47.6744 95.1742 45.4968 93.3616 43.9414C91.4262 42.2926 89.3679 40.7372 87.1867 39.524C82.3634 36.8175 77.2945 34.5466 72.5327 31.7157C69.7371 30.0359 67.095 29.8181 64.2072 30.8136C61.043 31.8713 57.9401 33.1156 54.7144 34.0178C50.1369 35.3243 45.836 34.8266 42.1494 31.3735C39.0466 28.4493 38.8316 27.5472 41.7193 24.4363C45.3137 20.5167 49.1539 16.8459 52.8711 13.0818C53.1476 12.8018 53.4548 12.5218 53.8235 12.1796C53.547 12.0241 53.4241 11.8996 53.2398 11.8374C49.5225 9.90869 45.6209 9.69093 41.5657 10.4375C38.125 11.0597 34.7456 11.9618 31.2127 11.7441C30.9669 11.713 30.5061 12.1485 30.414 12.4596C27.434 21.761 24.4233 31.0625 21.5355 40.395C21.1054 41.826 21.044 43.3814 20.7982 44.8746C23.5017 42.9459 26.2052 42.1371 29.1237 43.4125C32.0115 44.688 33.5782 47.0833 34.0083 50.2253C39.999 50.0075 41.6579 51.2519 43.6241 57.4736C46.1739 56.9136 48.5087 57.3802 50.5056 59.1223C52.5025 60.8644 53.2091 63.1975 53.0862 65.7173C54.1 65.6551 55.0523 65.6551 55.974 65.6551ZM86.9716 14.2328C84.3296 15.1971 81.9333 14.6061 79.5678 13.735C77.7245 13.0506 75.9427 12.2729 74.1302 11.5263C67.9552 9.00654 62.1182 9.69093 57.0492 13.9528C52.8404 17.468 49.0924 21.481 45.1601 25.3074C44.4228 26.0229 43.8084 26.8628 43.1632 27.6405C46.0203 31.2491 49.6147 32.1201 53.6699 30.938C56.7113 30.067 59.6912 28.8538 62.7019 27.8583C65.1596 27.0495 67.7094 26.3962 70.2593 27.1428C71.7646 27.5783 73.1471 28.4805 74.591 29.2271C78.7076 31.3424 82.8243 33.3956 86.8795 35.5732C90.1973 37.3775 93.4538 39.244 96.0958 42.0749C96.3109 42.3237 96.6795 42.4482 96.9867 42.6037C96.9867 42.2304 97.1096 41.826 96.9867 41.4838C95.0513 36.1331 93.0851 30.7825 91.119 25.4318C89.7365 21.7921 88.3848 18.0902 86.9716 14.2328ZM115.02 41.1416C114.959 41.0483 114.897 40.9861 114.836 40.8927C114.713 40.4572 114.621 39.9906 114.467 39.5551C110.289 28.1383 106.08 16.7214 101.871 5.27352C101.196 3.40701 100.12 2.90928 98.277 3.59366C95.8193 4.49581 93.3923 5.42906 90.9347 6.33121C88.5691 7.20225 88.139 8.1355 88.9992 10.4997C91.4569 17.1881 93.9146 23.9075 96.3723 30.5958C98.0927 35.2621 99.7823 39.8973 101.503 44.5635C102.086 46.119 103.131 46.8033 104.513 46.3056C107.493 45.2479 110.443 44.1902 113.33 42.9459C114.037 42.6659 114.467 41.7638 115.02 41.1416ZM3.22572 41.6082C3.16428 42.977 3.74798 43.7858 5.00755 44.2213C7.74173 45.1546 10.4759 46.0256 13.2101 46.9278C14.9919 47.4877 16.0364 46.9278 16.6509 45.0924C20.3374 33.4889 24.0547 21.8855 27.7412 10.3131C28.3556 8.35326 27.8334 7.29557 25.8979 6.6423C23.3788 5.80237 20.8597 4.99355 18.3405 4.18473C16.1901 3.46923 15.207 3.96697 14.5004 6.14456C10.8446 17.5614 7.18875 29.0093 3.53293 40.4572C3.37933 40.8927 3.28716 41.3594 3.22572 41.6082ZM26.5431 67.055C26.6967 69.2015 27.8641 70.7258 29.861 71.2857C31.7964 71.8146 33.7318 71.0057 34.7456 69.1703C36.4046 66.1217 38.0328 63.0109 39.6303 59.9311C40.8591 57.5669 40.1218 54.9538 37.9714 53.8028C35.7902 52.6206 33.3017 53.4917 32.0422 55.8559C30.4447 58.8112 28.8779 61.7976 27.3418 64.784C26.9425 65.4684 26.7889 66.2773 26.5431 67.055ZM23.1638 61.7043C24.2697 61.7043 25.5907 61.051 26.3895 59.62C27.7412 57.1936 29.0622 54.736 30.2911 52.2162C31.3356 50.0697 30.414 47.6433 28.2328 46.4923C26.3895 45.5279 23.9011 46.1812 22.7951 48.0788C21.3819 50.5364 20.0302 53.025 18.8321 55.5759C17.4496 58.4379 19.5387 61.6421 23.1638 61.7043ZM42.2723 75.2365C43.8084 75.2365 45.0987 74.6454 45.8667 73.3078C47.157 71.068 48.3858 68.7659 49.4918 66.4328C50.4442 64.4108 49.5225 61.9843 47.5871 60.9266C45.5902 59.8378 43.1018 60.46 41.9344 62.4509C40.6748 64.6285 39.4767 66.8372 38.4322 69.1081C37.0804 72.0323 39.1695 75.2054 42.2723 75.2365ZM53.2398 80.836C54.5301 80.8671 55.5131 80.245 56.0969 79.1873C57.1106 77.4141 58.0323 75.5787 58.831 73.7122C59.2919 72.6856 59.2304 71.5968 58.4317 70.6636C56.2197 68.0504 52.4103 68.3304 50.6285 71.2857C50.0755 72.219 49.5532 73.1833 49.0924 74.1477C47.8021 76.9475 50.1677 80.7738 53.2398 80.836ZM61.3502 76.2631C61.6881 76.4808 61.9339 76.6053 62.1489 76.7297C64.1151 77.7874 65.7433 77.4763 66.7878 75.8587C67.8938 74.1477 67.5558 72.0012 65.8047 70.8502C64.0536 69.6992 62.1796 68.797 60.3364 67.7705C62.8862 70.3525 62.6405 73.2144 61.3502 76.2631Z" fill="#FA0000"/>
</svg>
