<svg width="54" height="37" viewBox="0 0 54 37" fill="none" xmlns="http://www.w3.org/2000/svg">
<path d="M53.1 28.8781H52.2V18.9513C52.1976 16.7979 51.3435 14.7335 49.8249 13.2108C48.3064 11.6882 46.2475 10.8317 44.1 10.8293H37.8V0.902441C37.8 0.663099 37.7052 0.433559 37.5364 0.264318C37.3676 0.0950777 37.1387 0 36.9 0H0.9C0.661305 0 0.432387 0.0950777 0.263604 0.264318C0.0948211 0.433559 0 0.663099 0 0.902441V29.7806C0 30.0199 0.0948211 30.2495 0.263604 30.4187C0.432387 30.5879 0.661305 30.683 0.9 30.683H1.8V31.5855C1.8 32.3035 2.08446 32.9921 2.59081 33.4998C3.09716 34.0075 3.78392 34.2928 4.5 34.2928H8.8308C9.30316 35.1157 9.98348 35.7992 10.8032 36.2745C11.6229 36.7498 12.5531 37 13.5 37C14.4469 37 15.3771 36.7498 16.1968 36.2745C17.0165 35.7992 17.6968 35.1157 18.1692 34.2928H39.4308C39.9032 35.1157 40.5835 35.7992 41.4032 36.2745C42.2229 36.7498 43.1531 37 44.1 37C45.0469 37 45.9771 36.7498 46.7968 36.2745C47.6165 35.7992 48.2968 35.1157 48.7692 34.2928H51.3C52.0161 34.2928 52.7028 34.0075 53.2092 33.4998C53.7155 32.9921 54 32.3035 54 31.5855V29.7806C54 29.5412 53.9052 29.3117 53.7364 29.1424C53.5676 28.9732 53.3387 28.8781 53.1 28.8781ZM50.4 18.9513V20.7562H42.3C42.0613 20.7562 41.8324 20.6611 41.6636 20.4918C41.4948 20.3226 41.4 20.0931 41.4 19.8537V12.6342H44.1C45.7703 12.6361 47.3716 13.3023 48.5527 14.4865C49.7337 15.6708 50.3981 17.2765 50.4 18.9513ZM39.6 12.6342V19.8537C39.6 20.5717 39.8845 21.2604 40.3908 21.7681C40.8972 22.2758 41.5839 22.561 42.3 22.561H50.4V28.8781H48.7692C48.2968 28.0552 47.6165 27.3717 46.7968 26.8964C45.9771 26.4211 45.0469 26.1709 44.1 26.1709C43.1531 26.1709 42.2229 26.4211 41.4032 26.8964C40.5835 27.3717 39.9032 28.0552 39.4308 28.8781H37.8V12.6342H39.6ZM18.1692 28.8781C17.6968 28.0552 17.0165 27.3717 16.1968 26.8964C15.3771 26.4211 14.4469 26.1709 13.5 26.1709C12.5531 26.1709 11.6229 26.4211 10.8032 26.8964C9.98348 27.3717 9.30316 28.0552 8.8308 28.8781H1.8V25.2684H36V28.8781H18.1692ZM1.8 1.80488H36V23.4635H1.8V1.80488ZM4.5 32.4879C4.2613 32.4879 4.03239 32.3928 3.8636 32.2236C3.69482 32.0543 3.6 31.8248 3.6 31.5855V30.683H8.181C8.07299 31.2798 8.07299 31.8911 8.181 32.4879H4.5ZM13.5 35.1952C12.788 35.1952 12.092 34.9835 11.4999 34.5869C10.9079 34.1902 10.4465 33.6264 10.174 32.9669C9.90156 32.3073 9.83027 31.5814 9.96917 30.8812C10.1081 30.181 10.4509 29.5378 10.9544 29.033C11.4579 28.5281 12.0993 28.1843 12.7977 28.045C13.496 27.9058 14.2198 27.9772 14.8777 28.2505C15.5355 28.5237 16.0977 28.9863 16.4933 29.58C16.8889 30.1736 17.1 30.8715 17.1 31.5855C17.1 32.5428 16.7207 33.461 16.0456 34.1379C15.3705 34.8149 14.4548 35.1952 13.5 35.1952ZM18.819 32.4879C18.927 31.8911 18.927 31.2798 18.819 30.683H38.781C38.673 31.2798 38.673 31.8911 38.781 32.4879H18.819ZM44.1 35.1952C43.388 35.1952 42.692 34.9835 42.0999 34.5869C41.5079 34.1902 41.0465 33.6264 40.774 32.9669C40.5016 32.3073 40.4303 31.5814 40.5692 30.8812C40.7081 30.181 41.0509 29.5378 41.5544 29.033C42.0579 28.5281 42.6993 28.1843 43.3977 28.045C44.096 27.9058 44.8198 27.9772 45.4777 28.2505C46.1355 28.5237 46.6977 28.9863 47.0933 29.58C47.4889 30.1736 47.7 30.8715 47.7 31.5855C47.7 32.5428 47.3207 33.461 46.6456 34.1379C45.9705 34.8149 45.0548 35.1952 44.1 35.1952ZM52.2 31.5855C52.2 31.8248 52.1052 32.0543 51.9364 32.2236C51.7676 32.3928 51.5387 32.4879 51.3 32.4879H49.419C49.527 31.8911 49.527 31.2798 49.419 30.683H52.2V31.5855Z" fill="#FA0000"/>
<path d="M7.2 15.3415C7.43869 15.3415 7.66761 15.2464 7.8364 15.0772C8.00518 14.9079 8.1 14.6784 8.1 14.4391V11.7317H9.9C10.1387 11.7317 10.3676 11.6367 10.5364 11.4674C10.7052 11.2982 10.8 11.0686 10.8 10.8293C10.8 10.59 10.7052 10.3604 10.5364 10.1912C10.3676 10.0219 10.1387 9.92686 9.9 9.92686H8.1V8.12197H10.8C11.0387 8.12197 11.2676 8.0269 11.4364 7.85765C11.6052 7.68841 11.7 7.45887 11.7 7.21953C11.7 6.98019 11.6052 6.75065 11.4364 6.58141C11.2676 6.41217 11.0387 6.31709 10.8 6.31709H7.2C6.96131 6.31709 6.73239 6.41217 6.5636 6.58141C6.39482 6.75065 6.3 6.98019 6.3 7.21953V14.4391C6.3 14.6784 6.39482 14.9079 6.5636 15.0772C6.73239 15.2464 6.96131 15.3415 7.2 15.3415Z" fill="#FA0000"/>
<path d="M13.5 15.3415C13.7387 15.3415 13.9676 15.2464 14.1364 15.0772C14.3052 14.9079 14.4 14.6784 14.4 14.4391V12.3337L16.38 14.9805C16.5232 15.172 16.7364 15.2986 16.9727 15.3324C17.209 15.3663 17.449 15.3046 17.64 15.161C17.831 15.0174 17.9572 14.8036 17.991 14.5667C18.0247 14.3298 17.9632 14.0891 17.82 13.8976L16.0992 11.5973C16.7156 11.4066 17.2432 11.0003 17.5861 10.4525C17.929 9.90461 18.0644 9.25153 17.9676 8.61204C17.8708 7.97255 17.5483 7.38914 17.0587 6.96796C16.5692 6.54678 15.9451 6.31582 15.3 6.31709H13.5C13.2613 6.31709 13.0324 6.41217 12.8636 6.58141C12.6948 6.75065 12.6 6.98019 12.6 7.21953V14.4391C12.6 14.6784 12.6948 14.9079 12.8636 15.0772C13.0324 15.2464 13.2613 15.3415 13.5 15.3415ZM16.2 9.02441C16.2 9.26376 16.1052 9.4933 15.9364 9.66254C15.7676 9.83178 15.5387 9.92686 15.3 9.92686H14.4V8.12197H15.3C15.5387 8.12197 15.7676 8.21705 15.9364 8.38629C16.1052 8.55553 16.2 8.78507 16.2 9.02441Z" fill="#FA0000"/>
<path d="M20.7 15.3415H24.3C24.5387 15.3415 24.7676 15.2464 24.9364 15.0772C25.1052 14.9079 25.2 14.6784 25.2 14.4391C25.2 14.1997 25.1052 13.9702 24.9364 13.8009C24.7676 13.6317 24.5387 13.5366 24.3 13.5366H21.6V11.7317H23.4C23.6387 11.7317 23.8676 11.6367 24.0364 11.4674C24.2052 11.2982 24.3 11.0686 24.3 10.8293C24.3 10.59 24.2052 10.3604 24.0364 10.1912C23.8676 10.0219 23.6387 9.92686 23.4 9.92686H21.6V8.12197H24.3C24.5387 8.12197 24.7676 8.0269 24.9364 7.85765C25.1052 7.68841 25.2 7.45887 25.2 7.21953C25.2 6.98019 25.1052 6.75065 24.9364 6.58141C24.7676 6.41217 24.5387 6.31709 24.3 6.31709H20.7C20.4613 6.31709 20.2324 6.41217 20.0636 6.58141C19.8948 6.75065 19.8 6.98019 19.8 7.21953V14.4391C19.8 14.6784 19.8948 14.9079 20.0636 15.0772C20.2324 15.2464 20.4613 15.3415 20.7 15.3415Z" fill="#FA0000"/>
<path d="M27 15.3415H30.6C30.8387 15.3415 31.0676 15.2464 31.2364 15.0772C31.4052 14.9079 31.5 14.6784 31.5 14.4391C31.5 14.1997 31.4052 13.9702 31.2364 13.8009C31.0676 13.6317 30.8387 13.5366 30.6 13.5366H27.9V11.7317H29.7C29.9387 11.7317 30.1676 11.6367 30.3364 11.4674C30.5052 11.2982 30.6 11.0686 30.6 10.8293C30.6 10.59 30.5052 10.3604 30.3364 10.1912C30.1676 10.0219 29.9387 9.92686 29.7 9.92686H27.9V8.12197H30.6C30.8387 8.12197 31.0676 8.0269 31.2364 7.85765C31.4052 7.68841 31.5 7.45887 31.5 7.21953C31.5 6.98019 31.4052 6.75065 31.2364 6.58141C31.0676 6.41217 30.8387 6.31709 30.6 6.31709H27C26.7613 6.31709 26.5324 6.41217 26.3636 6.58141C26.1948 6.75065 26.1 6.98019 26.1 7.21953V14.4391C26.1 14.6784 26.1948 14.9079 26.3636 15.0772C26.5324 15.2464 26.7613 15.3415 27 15.3415Z" fill="#FA0000"/>
<path d="M33.3 17.1464H4.5C4.2613 17.1464 4.03239 17.2415 3.8636 17.4107C3.69482 17.5799 3.6 17.8095 3.6 18.0488C3.6 18.2882 3.69482 18.5177 3.8636 18.687C4.03239 18.8562 4.2613 18.9513 4.5 18.9513H33.3C33.5387 18.9513 33.7676 18.8562 33.9364 18.687C34.1052 18.5177 34.2 18.2882 34.2 18.0488C34.2 17.8095 34.1052 17.5799 33.9364 17.4107C33.7676 17.2415 33.5387 17.1464 33.3 17.1464Z" fill="#FA0000"/>
</svg>
