<svg width="50" height="49" viewBox="0 0 50 49" fill="none" xmlns="http://www.w3.org/2000/svg">
<path d="M40.4308 14.2358C40.9701 14.2358 41.4074 13.8074 41.4074 13.2788V2.87109C41.4074 1.28797 40.0931 0 38.4776 0H2.92977C1.31429 0 0 1.28797 0 2.87109V46.1289C0 47.712 1.31429 49 2.92977 49H38.4776C40.0931 49 41.4074 47.712 41.4074 46.1289V39.0783C41.4074 38.5497 40.9701 38.1212 40.4308 38.1212C39.8915 38.1212 39.4542 38.5497 39.4542 39.0783V46.1289C39.4542 46.6566 39.0161 47.0859 38.4776 47.0859H2.92977C2.39128 47.0859 1.95318 46.6566 1.95318 46.1289V2.87109C1.95318 2.34339 2.39128 1.91406 2.92977 1.91406H38.4776C39.0161 1.91406 39.4542 2.34339 39.4542 2.87109V13.2788C39.4542 13.8074 39.8915 14.2358 40.4308 14.2358Z" fill="#FA0000"/>
<path d="M20.7037 5.16797C15.7495 5.16797 11.7191 9.11773 11.7191 13.9727C11.7191 16.4913 12.8041 18.7659 14.5397 20.3722C14.5722 20.4063 14.6067 20.4386 14.6445 20.4679C16.2433 21.9015 18.371 22.7772 20.7036 22.7772C23.0362 22.7772 25.1639 21.9014 26.7626 20.4679C26.8004 20.4386 26.835 20.4062 26.8675 20.3722C28.6033 18.7659 29.6883 16.4913 29.6883 13.9727C29.6883 9.11773 25.6578 5.16797 20.7037 5.16797ZM20.7037 20.8633C19.109 20.8633 17.6373 20.3396 16.4564 19.4595C17.3147 17.968 18.9164 17.0352 20.7037 17.0352C22.4909 17.0352 24.0926 17.968 24.951 19.4595C23.77 20.3396 22.2984 20.8633 20.7037 20.8633ZM19.1411 13.5898V12.9678C19.1411 12.1235 19.8421 11.4365 20.7037 11.4365C21.5652 11.4365 22.2662 12.1235 22.2662 12.9678V13.5898C22.2662 14.4341 21.5652 15.1211 20.7037 15.1211C19.8421 15.1211 19.1411 14.4341 19.1411 13.5898ZM26.362 18.0576C25.6418 17.0108 24.6436 16.1966 23.4847 15.694C23.9447 15.1114 24.2194 14.3817 24.2194 13.5898V12.9678C24.2194 11.068 22.6423 9.52246 20.7037 9.52246C18.7651 9.52246 17.188 11.068 17.188 12.9678V13.5898C17.188 14.3817 17.4627 15.1114 17.9227 15.694C16.7637 16.1966 15.7656 17.0108 15.0453 18.0576C14.1831 16.9136 13.6722 15.5007 13.6722 13.9727C13.6722 10.1731 16.8265 7.08203 20.7037 7.08203C24.5808 7.08203 27.7351 10.1731 27.7351 13.9727C27.7351 15.5007 27.2243 16.9136 26.362 18.0576Z" fill="#FA0000"/>
<path d="M25.9773 41.918H20.7037C20.1644 41.918 19.7271 42.3464 19.7271 42.875C19.7271 43.4036 20.1644 43.832 20.7037 43.832H25.9773C26.5165 43.832 26.9539 43.4036 26.9539 42.875C26.9539 42.3464 26.5165 41.918 25.9773 41.918Z" fill="#FA0000"/>
<path d="M25.9773 36.5586H12.1097C11.5704 36.5586 11.1331 36.9871 11.1331 37.5156C11.1331 38.0442 11.5704 38.4727 12.1097 38.4727H25.9773C26.5165 38.4727 26.9539 38.0442 26.9539 37.5156C26.9539 36.9871 26.5165 36.5586 25.9773 36.5586Z" fill="#FA0000"/>
<path d="M25.9773 31.1992H12.1097C11.5704 31.1992 11.1331 31.6277 11.1331 32.1562C11.1331 32.6848 11.5704 33.1133 12.1097 33.1133H25.9773C26.5165 33.1133 26.9539 32.6848 26.9539 32.1562C26.9539 31.6277 26.5165 31.1992 25.9773 31.1992Z" fill="#FA0000"/>
<path d="M8.62904 26.1203C8.44749 25.9422 8.19553 25.8398 7.93771 25.8398C7.68077 25.8398 7.42881 25.9422 7.24727 26.1203C7.06562 26.2983 6.96113 26.5452 6.96113 26.7969C6.96113 27.0486 7.06552 27.2955 7.24727 27.4735C7.42989 27.6515 7.68077 27.7539 7.93771 27.7539C8.19553 27.7539 8.44652 27.6515 8.62904 27.4735C8.81069 27.2955 8.91528 27.0486 8.91528 26.7969C8.91528 26.5452 8.81078 26.2983 8.62904 26.1203Z" fill="#FA0000"/>
<path d="M8.62904 31.4796C8.44652 31.3016 8.19553 31.1992 7.93771 31.1992C7.68077 31.1992 7.42989 31.3016 7.24727 31.4796C7.06562 31.6576 6.96113 31.9046 6.96113 32.1562C6.96113 32.4079 7.06552 32.6549 7.24727 32.8329C7.42989 33.0109 7.68077 33.1133 7.93771 33.1133C8.19553 33.1133 8.44652 33.0109 8.62904 32.8329C8.81069 32.6549 8.91528 32.4079 8.91528 32.1562C8.91528 31.9046 8.81078 31.6576 8.62904 31.4796Z" fill="#FA0000"/>
<path d="M8.62904 36.839C8.44652 36.661 8.19553 36.5586 7.93771 36.5586C7.68077 36.5586 7.42989 36.661 7.24727 36.839C7.06562 37.017 6.96113 37.2639 6.96113 37.5156C6.96113 37.7673 7.06552 38.0142 7.24727 38.1922C7.42881 38.3703 7.68077 38.4727 7.93771 38.4727C8.19553 38.4727 8.44749 38.3703 8.62904 38.1922C8.81069 38.0142 8.91528 37.7673 8.91528 37.5156C8.91528 37.2639 8.81078 37.017 8.62904 36.839Z" fill="#FA0000"/>
<path d="M25.9773 25.8398H12.1097C11.5704 25.8398 11.1331 26.2683 11.1331 26.7969C11.1331 27.3254 11.5704 27.7539 12.1097 27.7539H25.9773C26.5165 27.7539 26.9539 27.3254 26.9539 26.7969C26.9539 26.2683 26.5165 25.8398 25.9773 25.8398Z" fill="#FA0000"/>
<path d="M47.95 12.472C47.0013 11.9352 45.896 11.7926 44.8375 12.0705C43.7793 12.3484 42.8947 13.0135 42.347 13.9433L30.0575 34.803C29.9902 34.9174 29.9476 35.0442 29.9326 35.1754L29.0676 42.7689C29.0246 43.1467 29.2139 43.5137 29.5498 43.7039C29.7015 43.7896 29.8699 43.8321 30.038 43.8321C30.2423 43.8321 30.4458 43.7694 30.6172 43.6457L36.8951 39.1147C37.0036 39.0364 37.0945 38.937 37.1617 38.8226L49.4512 17.9629C50.5821 16.0435 49.9087 13.5803 47.95 12.472ZM31.2563 40.8072L31.7081 36.8421L34.5345 38.4413L31.2563 40.8072ZM35.9586 37.0367L32.2373 34.9313L42.0994 18.1918L45.8207 20.2973L35.9586 37.0367ZM47.7598 17.0058L46.7972 18.6397L43.0759 16.5342L44.0385 14.9003C44.3254 14.4133 44.7887 14.0649 45.343 13.9193C45.8975 13.7737 46.4765 13.8485 46.9733 14.1297C47.4703 14.4109 47.8258 14.8649 47.9743 15.4081C48.1229 15.9513 48.0467 16.5187 47.7598 17.0058Z" fill="#FA0000"/>
</svg>
