<svg width="50" height="50" viewBox="0 0 50 50" fill="none" xmlns="http://www.w3.org/2000/svg">
<path d="M41.6667 36.0302L39.5443 34.7586C38.8973 34.3716 38.1572 34.1674 37.4032 34.167H34.209C33.5551 34.1657 32.9041 34.25 32.2717 34.4168L22.6477 37.0002C21.5955 37.2907 20.7503 38.0744 20.3817 39.1019L11.9165 34.5222C11.2301 34.1316 10.4264 33.9989 9.65089 34.1478C9.35832 34.1995 9.07471 34.2927 8.80819 34.4245C8.20639 34.7126 7.70712 35.1781 7.37672 35.7579C7.08782 36.2629 6.93604 36.8346 6.93604 37.4161C6.92709 38.6034 7.55616 39.7037 8.58318 40.2986L23.7549 49.3761C24.4141 49.7842 25.1733 50.0003 25.9485 50.0003H37.69C38.2145 50.0007 38.7341 49.9014 39.2216 49.7086L41.6667 48.743V50.0003H50V33.3336H41.6667V36.0302ZM38.6092 48.1587C38.3175 48.2738 38.0062 48.3332 37.6925 48.3336H25.9485C25.4789 48.3332 25.0187 48.201 24.6208 47.952L9.42831 38.8638C8.91195 38.5656 8.59579 38.013 8.59986 37.4169C8.60108 37.1247 8.67799 36.8375 8.82325 36.5835C8.98926 36.2959 9.2391 36.0652 9.53899 35.9227C9.67123 35.8585 9.8112 35.8129 9.95565 35.7877C10.061 35.7681 10.1681 35.7579 10.2751 35.7579C10.5615 35.7571 10.8431 35.832 11.0917 35.9744L20.271 40.9345C20.2816 40.9854 20.2816 41.0355 20.295 41.0863C20.6897 42.541 22.0093 43.5513 23.5169 43.553C23.9807 43.5106 24.4401 43.4284 24.8901 43.308L33.5482 40.9911L33.1185 39.381L24.4885 41.6877C24.1085 41.7752 23.6182 41.8753 23.5169 41.8838C22.7641 41.8851 22.1041 41.3821 21.9059 40.6562C21.8791 40.5553 21.8632 40.452 21.8575 40.3478C21.8575 40.3478 21.851 40.146 21.8575 40.0752C21.921 39.3781 22.4093 38.793 23.0835 38.6054L32.7035 36.0318C33.1946 35.9004 33.7008 35.8336 34.209 35.8336H37.4032C37.8556 35.8336 38.2996 35.9565 38.6873 36.1889L41.6667 37.9727V46.9502L38.6092 48.1587ZM43.3333 35.0003H48.3333V48.3336H43.3333V35.0003Z" fill="#FA0000"/>
<path d="M34.3701 6.6667L29.8999 2.19689C28.4965 0.785349 26.5869 -0.00566606 24.5968 3.05568e-05H14.1199C13.4733 0.000844359 12.8357 0.151805 12.2567 0.439891L10.389 1.37414C10.0146 1.56253 9.59879 1.65246 9.18009 1.63577L8.33333 1.60607V3.05568e-05H0V18.3334H8.33333V15.8334H9.75016L10.2543 16.1666C11.665 17.1033 13.3077 17.6323 15 17.6941V28.3334H50V6.6667H34.3701ZM6.66667 16.6667H1.66667V1.6667H6.66667V16.6667ZM11.1768 14.7799L10.2498 14.1667H8.33333V3.27355L9.11906 3.30163C9.81689 3.32645 10.5094 3.1763 11.134 2.86502L13.0001 1.93078C13.3476 1.75703 13.7313 1.6667 14.1199 1.6667H24.5968C26.1446 1.66222 27.6302 2.27746 28.7215 3.37487L32.0133 6.6667H25.1367L23.114 4.6444L21.936 5.82238L27.8227 11.7094C28.4766 12.3605 28.4786 13.4184 27.8276 14.0727C27.1761 14.7266 26.1182 14.7286 25.4643 14.0776L20.5477 9.161L19.9642 9.66108C18.3533 11.0291 15.9985 11.0641 14.3473 9.74409L13.8643 9.35265L12.8141 10.6474L13.3024 11.0433C13.8131 11.4514 14.3864 11.7745 15 11.9999V16.0266C13.6361 15.966 12.314 15.5351 11.1768 14.7799ZM23.031 13.9999L24.2883 15.2576C25.5937 16.5434 27.6892 16.5454 28.9966 15.2617C27.7734 17.1558 28.256 19.6765 30.0924 20.9847C31.9287 22.2929 34.469 21.9255 35.8594 20.151C37.2498 18.3761 36.9987 15.8216 35.2889 14.3518C33.5795 12.8821 31.016 13.0168 29.4702 14.6574C30.0395 13.7635 30.1412 12.6494 29.7432 11.6667H40.9025C41.261 13.7635 42.9032 15.4057 45 15.7642V19.2359C42.9032 19.5944 41.261 21.2366 40.9025 23.3334H24.0975C23.739 21.2366 22.0968 19.5944 20 19.2359V15.7642C21.191 15.5636 22.2681 14.9366 23.031 13.9999ZM30 17.5C30 16.1194 31.1194 15 32.5 15C33.8806 15 35 16.1194 35 17.5C35 18.8806 33.8806 20 32.5 20C31.1194 20 30 18.8806 30 17.5ZM48.3333 26.6667H16.6667V12.3491C17.9879 12.4484 19.305 12.1114 20.4167 11.3908L21.8384 12.8125C21.213 13.6621 20.2218 14.1647 19.1667 14.1667H18.3333V20.8334H19.1667C21.0075 20.8334 22.5 22.3259 22.5 24.1667V25H42.5V24.1667C42.5 22.3259 43.9925 20.8334 45.8333 20.8334H46.6667V14.1667H45.8333C43.9925 14.1667 42.5 12.6742 42.5 10.8334V10H28.4701L26.8034 8.33336H48.3333V26.6667Z" fill="#FA0000"/>
</svg>
