<svg width="50" height="50" viewBox="0 0 50 50" fill="none" xmlns="http://www.w3.org/2000/svg">
<path d="M26.6667 43.3333H40C40.663 43.3333 41.2989 43.0699 41.7678 42.6011C42.2366 42.1323 42.5 41.4964 42.5 40.8333V29.1667C42.5 28.5036 42.2366 27.8677 41.7678 27.3989C41.2989 26.9301 40.663 26.6667 40 26.6667H26.6667C26.0036 26.6667 25.3677 26.9301 24.8989 27.3989C24.4301 27.8677 24.1667 28.5036 24.1667 29.1667V40.8333C24.1667 41.4964 24.4301 42.1323 24.8989 42.6011C25.3677 43.0699 26.0036 43.3333 26.6667 43.3333ZM25.8333 29.1667C25.8333 28.9457 25.9211 28.7337 26.0774 28.5774C26.2337 28.4211 26.4457 28.3333 26.6667 28.3333H40C40.221 28.3333 40.433 28.4211 40.5893 28.5774C40.7455 28.7337 40.8333 28.9457 40.8333 29.1667V40.8333C40.8333 41.0543 40.7455 41.2663 40.5893 41.4226C40.433 41.5789 40.221 41.6667 40 41.6667H26.6667C26.4457 41.6667 26.2337 41.5789 26.0774 41.4226C25.9211 41.2663 25.8333 41.0543 25.8333 40.8333V29.1667Z" fill="#FA0000"/>
<path d="M37.5 34.1667H39.1667V30.8333C39.1667 30.6123 39.0789 30.4004 38.9226 30.2441C38.7663 30.0878 38.5543 30 38.3333 30H35V31.6667H37.5V34.1667Z" fill="#FA0000"/>
<path d="M18.3333 37.5H16.6667V39.1667H18.3333V37.5Z" fill="#FA0000"/>
<path d="M47.5 45H45.8333V24.9167C46.7732 24.7221 47.6176 24.21 48.2246 23.4665C48.8316 22.7229 49.1642 21.7932 49.1667 20.8333C49.168 20.7943 49.1652 20.7551 49.1583 20.7167L47.6917 10.4833C47.6075 9.88834 47.3119 9.34356 46.8589 8.94872C46.4059 8.55389 45.8259 8.33543 45.225 8.33333H39.1667V2.5C39.1647 1.83757 38.9007 1.20283 38.4322 0.734419C37.9638 0.266006 37.3291 0.00197841 36.6667 0H13.3333C12.6709 0.00197841 12.0362 0.266006 11.5678 0.734419C11.0993 1.20283 10.8353 1.83757 10.8333 2.5V8.33333H4.775C4.1741 8.33543 3.59405 8.55389 3.14106 8.94872C2.68807 9.34356 2.39246 9.88834 2.30833 10.4833L0.841667 20.7167C0.83475 20.7551 0.831956 20.7943 0.833333 20.8333C0.835791 21.7932 1.16844 22.7229 1.77542 23.4665C2.38241 24.21 3.22675 24.7221 4.16667 24.9167V45H2.5C1.83696 45 1.20107 45.2634 0.732233 45.7322C0.263392 46.2011 0 46.837 0 47.5C0 48.163 0.263392 48.7989 0.732233 49.2678C1.20107 49.7366 1.83696 50 2.5 50H47.5C48.163 50 48.7989 49.7366 49.2678 49.2678C49.7366 48.7989 50 48.163 50 47.5C50 46.837 49.7366 46.2011 49.2678 45.7322C48.7989 45.2634 48.163 45 47.5 45ZM42.5 10H45.225C45.4253 10.0016 45.6185 10.0746 45.7698 10.206C45.9211 10.3374 46.0204 10.5185 46.05 10.7167L47.5 20.8917C47.4962 21.22 47.4277 21.5443 47.2985 21.8462C47.1694 22.148 46.982 22.4215 46.7471 22.6509C46.5123 22.8803 46.2345 23.0613 45.9298 23.1834C45.625 23.3055 45.2991 23.3663 44.9708 23.3625C44.6425 23.3587 44.3182 23.2902 44.0163 23.161C43.7145 23.0319 43.441 22.8445 43.2116 22.6096C42.9822 22.3748 42.8012 22.097 42.6791 21.7923C42.557 21.4875 42.4962 21.1616 42.5 20.8333V10ZM39.1667 17.5V10H40.8333V20.8333C40.8333 21.4964 40.5699 22.1323 40.1011 22.6011C39.6323 23.0699 38.9964 23.3333 38.3333 23.3333C37.6703 23.3333 37.0344 23.0699 36.5656 22.6011C36.0967 22.1323 35.8333 21.4964 35.8333 20.8333V20H36.6667C37.3291 19.998 37.9638 19.734 38.4322 19.2656C38.9007 18.7972 39.1647 18.1624 39.1667 17.5ZM12.5 2.5C12.5 2.27899 12.5878 2.06702 12.7441 1.91074C12.9004 1.75446 13.1123 1.66667 13.3333 1.66667H36.6667C36.8877 1.66667 37.0996 1.75446 37.2559 1.91074C37.4122 2.06702 37.5 2.27899 37.5 2.5V17.5C37.5 17.721 37.4122 17.933 37.2559 18.0893C37.0996 18.2455 36.8877 18.3333 36.6667 18.3333H13.3333C13.1123 18.3333 12.9004 18.2455 12.7441 18.0893C12.5878 17.933 12.5 17.721 12.5 17.5V2.5ZM34.1667 20V20.8333C34.1667 21.4964 33.9033 22.1323 33.4344 22.6011C32.9656 23.0699 32.3297 23.3333 31.6667 23.3333C31.0036 23.3333 30.3677 23.0699 29.8989 22.6011C29.4301 22.1323 29.1667 21.4964 29.1667 20.8333V20H34.1667ZM27.5 20V20.8333C27.5 21.4964 27.2366 22.1323 26.7678 22.6011C26.2989 23.0699 25.663 23.3333 25 23.3333C24.337 23.3333 23.7011 23.0699 23.2322 22.6011C22.7634 22.1323 22.5 21.4964 22.5 20.8333V20H27.5ZM20.8333 20V20.8333C20.8333 21.4964 20.5699 22.1323 20.1011 22.6011C19.6323 23.0699 18.9964 23.3333 18.3333 23.3333C17.6703 23.3333 17.0344 23.0699 16.5656 22.6011C16.0967 22.1323 15.8333 21.4964 15.8333 20.8333V20H20.8333ZM9.16667 10H10.8333V17.5C10.8353 18.1624 11.0993 18.7972 11.5678 19.2656C12.0362 19.734 12.6709 19.998 13.3333 20H14.1667V20.8333C14.1667 21.4964 13.9033 22.1323 13.4344 22.6011C12.9656 23.0699 12.3297 23.3333 11.6667 23.3333C11.0036 23.3333 10.3677 23.0699 9.8989 22.6011C9.43006 22.1323 9.16667 21.4964 9.16667 20.8333V10ZM8.33333 23.3333C8.72145 23.8508 9.22471 24.2708 9.80328 24.5601C10.3818 24.8494 11.0198 25 11.6667 25C12.3135 25 12.9515 24.8494 13.5301 24.5601C14.1086 24.2708 14.6119 23.8508 15 23.3333C15.3881 23.8508 15.8914 24.2708 16.4699 24.5601C17.0485 24.8494 17.6865 25 18.3333 25C18.9802 25 19.6182 24.8494 20.1967 24.5601C20.7753 24.2708 21.2786 23.8508 21.6667 23.3333C22.0548 23.8508 22.558 24.2708 23.1366 24.5601C23.7152 24.8494 24.3531 25 25 25C25.6469 25 26.2848 24.8494 26.8634 24.5601C27.442 24.2708 27.9452 23.8508 28.3333 23.3333C28.7214 23.8508 29.2247 24.2708 29.8033 24.5601C30.3818 24.8494 31.0198 25 31.6667 25C32.3135 25 32.9515 24.8494 33.5301 24.5601C34.1086 24.2708 34.6119 23.8508 35 23.3333C35.3881 23.8508 35.8914 24.2708 36.4699 24.5601C37.0485 24.8494 37.6865 25 38.3333 25C38.9802 25 39.6182 24.8494 40.1967 24.5601C40.7753 24.2708 41.2786 23.8508 41.6667 23.3333C42.2793 24.1465 43.1687 24.7068 44.1667 24.9083V45H20.8333V33.3333C20.8333 31.5652 20.131 29.8695 18.8807 28.6193C17.6305 27.369 15.9348 26.6667 14.1667 26.6667C12.3986 26.6667 10.7029 27.369 9.45262 28.6193C8.20238 29.8695 7.5 31.5652 7.5 33.3333V45H5.83333V24.9083C6.83126 24.7068 7.7207 24.1465 8.33333 23.3333ZM19.1667 33.3333V45H9.16667V33.3333C9.16667 32.0073 9.69345 30.7355 10.6311 29.7978C11.5688 28.8601 12.8406 28.3333 14.1667 28.3333C15.4927 28.3333 16.7645 28.8601 17.7022 29.7978C18.6399 30.7355 19.1667 32.0073 19.1667 33.3333ZM2.5 20.8917L3.95 10.7167C3.97958 10.5185 4.07895 10.3374 4.2302 10.206C4.38145 10.0746 4.57465 10.0016 4.775 10H7.5V20.8333C7.50383 21.1616 7.44296 21.4875 7.32086 21.7923C7.19876 22.097 7.01783 22.3748 6.78839 22.6096C6.55895 22.8445 6.2855 23.0319 5.98366 23.161C5.68181 23.2902 5.35747 23.3587 5.02917 23.3625C4.70086 23.3663 4.37502 23.3055 4.07024 23.1834C3.76546 23.0613 3.48771 22.8803 3.25286 22.6509C3.018 22.4215 2.83064 22.148 2.70146 21.8462C2.57229 21.5443 2.50383 21.22 2.5 20.8917ZM47.5 48.3333H2.5C2.27899 48.3333 2.06702 48.2455 1.91074 48.0893C1.75446 47.933 1.66667 47.721 1.66667 47.5C1.66667 47.279 1.75446 47.067 1.91074 46.9107C2.06702 46.7545 2.27899 46.6667 2.5 46.6667H47.5C47.721 46.6667 47.933 46.7545 48.0893 46.9107C48.2455 47.067 48.3333 47.279 48.3333 47.5C48.3333 47.721 48.2455 47.933 48.0893 48.0893C47.933 48.2455 47.721 48.3333 47.5 48.3333Z" fill="#FA0000"/>
<path d="M33.3333 8.33333H32.5V5.83333C32.498 5.1709 32.234 4.53616 31.7656 4.06775C31.2972 3.59934 30.6624 3.33531 30 3.33333H20C19.3376 3.33531 18.7028 3.59934 18.2344 4.06775C17.766 4.53616 17.502 5.1709 17.5 5.83333V8.33333H16.6667C16.0042 8.33531 15.3695 8.59934 14.9011 9.06775C14.4327 9.53616 14.1686 10.1709 14.1667 10.8333V14.1667C14.1667 14.3877 14.2545 14.5996 14.4107 14.7559C14.567 14.9122 14.779 15 15 15H17.65C17.8206 15.4871 18.1384 15.9092 18.5594 16.2078C18.9804 16.5064 19.4838 16.6668 20 16.6668C20.5162 16.6668 21.0196 16.5064 21.4406 16.2078C21.8616 15.9092 22.1794 15.4871 22.35 15H27.65C27.8206 15.4871 28.1384 15.9092 28.5594 16.2078C28.9804 16.5064 29.4838 16.6668 30 16.6668C30.5162 16.6668 31.0196 16.5064 31.4406 16.2078C31.8616 15.9092 32.1794 15.4871 32.35 15H35C35.221 15 35.433 14.9122 35.5893 14.7559C35.7455 14.5996 35.8333 14.3877 35.8333 14.1667V10.8333C35.8314 10.1709 35.5673 9.53616 35.0989 9.06775C34.6305 8.59934 33.9958 8.33531 33.3333 8.33333ZM25.8333 5H30C30.221 5 30.433 5.0878 30.5893 5.24408C30.7455 5.40036 30.8333 5.61232 30.8333 5.83333V8.33333H25.8333V5ZM19.1667 5.83333C19.1667 5.61232 19.2545 5.40036 19.4107 5.24408C19.567 5.0878 19.779 5 20 5H24.1667V8.33333H19.1667V5.83333ZM20 15C19.8352 15 19.6741 14.9511 19.537 14.8596C19.4 14.768 19.2932 14.6378 19.2301 14.4856C19.167 14.3333 19.1505 14.1657 19.1827 14.0041C19.2148 13.8424 19.2942 13.694 19.4107 13.5774C19.5273 13.4609 19.6758 13.3815 19.8374 13.3493C19.9991 13.3172 20.1666 13.3337 20.3189 13.3968C20.4712 13.4598 20.6013 13.5666 20.6929 13.7037C20.7845 13.8407 20.8333 14.0018 20.8333 14.1667C20.8333 14.3877 20.7455 14.5996 20.5893 14.7559C20.433 14.9122 20.221 15 20 15ZM30 15C29.8352 15 29.6741 14.9511 29.537 14.8596C29.4 14.768 29.2932 14.6378 29.2301 14.4856C29.167 14.3333 29.1505 14.1657 29.1827 14.0041C29.2148 13.8424 29.2942 13.694 29.4107 13.5774C29.5273 13.4609 29.6758 13.3815 29.8374 13.3493C29.9991 13.3172 30.1666 13.3337 30.3189 13.3968C30.4712 13.4598 30.6013 13.5666 30.6929 13.7037C30.7845 13.8407 30.8333 14.0018 30.8333 14.1667C30.8333 14.3877 30.7455 14.5996 30.5893 14.7559C30.433 14.9122 30.221 15 30 15ZM34.1667 13.3333H32.35C32.1794 12.8462 31.8616 12.4241 31.4406 12.1255C31.0196 11.8269 30.5162 11.6665 30 11.6665C29.4838 11.6665 28.9804 11.8269 28.5594 12.1255C28.1384 12.4241 27.8206 12.8462 27.65 13.3333H22.35C22.1794 12.8462 21.8616 12.4241 21.4406 12.1255C21.0196 11.8269 20.5162 11.6665 20 11.6665C19.4838 11.6665 18.9804 11.8269 18.5594 12.1255C18.1384 12.4241 17.8206 12.8462 17.65 13.3333H15.8333V10.8333C15.8333 10.6123 15.9211 10.4004 16.0774 10.2441C16.2337 10.0878 16.4457 10 16.6667 10H33.3333C33.5543 10 33.7663 10.0878 33.9226 10.2441C34.0789 10.4004 34.1667 10.6123 34.1667 10.8333V13.3333Z" fill="#FA0000"/>
</svg>
