<svg width="25" height="25" viewBox="0 0 25 25" fill="none" xmlns="http://www.w3.org/2000/svg">
<path d="M19.0064 16.538C18.1896 15.7316 17.17 15.7316 16.3584 16.538C15.7394 17.1519 15.1203 17.7657 14.5116 18.39C14.3452 18.5617 14.2047 18.5981 14.0018 18.4836C13.6012 18.2651 13.1746 18.0883 12.7897 17.849C10.9949 16.7201 9.49144 15.2686 8.15966 13.6351C7.49897 12.8236 6.91112 11.9548 6.50014 10.9768C6.4169 10.7791 6.43251 10.649 6.59378 10.4878C7.21285 9.88949 7.81631 9.27563 8.42498 8.66176C9.27294 7.80859 9.27295 6.80975 8.41977 5.95138C7.93596 5.46237 7.45215 4.98376 6.96834 4.49475C6.46892 3.99533 5.97471 3.49071 5.47009 2.99649C4.65333 2.20055 3.63369 2.20055 2.82214 3.0017C2.19787 3.61556 1.59961 4.24504 0.96493 4.8485C0.377074 5.40514 0.0805447 6.08664 0.0181175 6.88258C-0.0807255 8.17795 0.236613 9.40048 0.684007 10.5918C1.59961 13.0577 2.99381 15.2478 4.68455 17.2559C6.96834 19.9715 9.69433 22.12 12.8833 23.6703C14.3191 24.3674 15.807 24.9032 17.4249 24.9917C18.5382 25.0541 19.5058 24.7732 20.2809 23.9044C20.8116 23.3113 21.4098 22.7703 21.9717 22.2033C22.804 21.3605 22.8092 20.3408 21.9821 19.5085C20.9936 18.5148 20 17.5264 19.0064 16.538Z" fill="black"/>
<path d="M18.0127 12.3918L19.9324 12.0641C19.6307 10.3005 18.7983 8.70339 17.5341 7.43404C16.1972 6.09705 14.5064 5.25429 12.644 4.99417L12.3735 6.92421C13.8145 7.1271 15.1255 7.77738 16.1607 8.81264C17.1388 9.79066 17.7786 11.0288 18.0127 12.3918Z" fill="black"/>
<path d="M21.0144 4.04736C18.7983 1.8312 15.9942 0.431788 12.8989 0L12.6284 1.93004C15.3023 2.3046 17.7266 3.51673 19.641 5.42596C21.4566 7.24155 22.6479 9.53575 23.0797 12.0588L24.9994 11.7311C24.4947 8.80743 23.1161 6.15428 21.0144 4.04736Z" fill="black"/>
</svg>
