<svg width="32" height="32" viewBox="0 0 32 32" fill="none" xmlns="http://www.w3.org/2000/svg">
<path d="M16 1C7.71602 1 1 7.71602 1 16C1 24.284 7.71602 31 16 31C24.284 31 31 24.284 31 16C31 7.71602 24.284 1 16 1ZM16 29.5C8.55602 29.5 2.5 23.444 2.5 16C2.5 8.55602 8.55602 2.5 16 2.5C23.444 2.5 29.5 8.55602 29.5 16C29.5 23.444 23.444 29.5 16 29.5Z" fill="#FB1100"/>
<path d="M19.7065 8.00653C18.8945 7.30452 17.848 6.95301 16.567 6.95301H16.309C14.9805 6.95301 13.848 7.3675 12.9105 8.19502C11.879 9.11805 11.3635 10.3515 11.3635 11.898C11.3635 12.1485 11.434 12.3435 11.5745 12.484C11.715 12.61 11.8865 12.664 12.09 12.648C12.2775 12.648 12.4415 12.5775 12.5821 12.437C12.738 12.2815 12.8165 12.094 12.8165 11.8745C12.8165 11 13.0196 10.2425 13.426 9.60104C14.0195 8.69553 14.9801 8.24155 16.309 8.24155C17.434 8.24155 18.285 8.54606 18.8635 9.15555C19.3475 9.65653 19.5975 10.304 19.6135 11.101C19.6135 11.804 19.4651 12.4295 19.168 12.976C18.824 13.6015 18.2071 14.2885 17.3165 15.0385C16.5665 15.648 16.0431 16.3275 15.7461 17.0775C15.4486 17.7965 15.3006 18.711 15.3006 19.8196C15.3006 20.039 15.3711 20.2181 15.5116 20.3586C15.6521 20.4845 15.8236 20.5461 16.0271 20.5461C16.2146 20.5461 16.3786 20.4845 16.5191 20.3586C16.6751 20.2181 16.7536 20.039 16.7536 19.8196C16.7536 18.7265 16.8861 17.883 17.1521 17.2881C17.4171 16.7256 17.9331 16.1321 18.6991 15.5066C19.543 14.7886 20.1521 14.0931 20.5271 13.4206C20.8861 12.7641 21.0661 12.0306 21.0661 11.2176C21.066 9.8435 20.6125 8.77252 19.7065 8.00653Z" fill="#FB1100"/>
<path d="M16 25C16.8284 25 17.5 24.3284 17.5 23.5C17.5 22.6716 16.8284 22 16 22C15.1716 22 14.5 22.6716 14.5 23.5C14.5 24.3284 15.1716 25 16 25Z" fill="#FB1100"/>
<path d="M16 1C7.71602 1 1 7.71602 1 16C1 24.284 7.71602 31 16 31C24.284 31 31 24.284 31 16C31 7.71602 24.284 1 16 1ZM16 29.5C8.55602 29.5 2.5 23.444 2.5 16C2.5 8.55602 8.55602 2.5 16 2.5C23.444 2.5 29.5 8.55602 29.5 16C29.5 23.444 23.444 29.5 16 29.5Z" stroke="#FB1100" stroke-width="0.5"/>
<path d="M19.7065 8.00653C18.8945 7.30452 17.848 6.95301 16.567 6.95301H16.309C14.9805 6.95301 13.848 7.3675 12.9105 8.19502C11.879 9.11805 11.3635 10.3515 11.3635 11.898C11.3635 12.1485 11.434 12.3435 11.5745 12.484C11.715 12.61 11.8865 12.664 12.09 12.648C12.2775 12.648 12.4415 12.5775 12.5821 12.437C12.738 12.2815 12.8165 12.094 12.8165 11.8745C12.8165 11 13.0196 10.2425 13.426 9.60104C14.0195 8.69553 14.9801 8.24155 16.309 8.24155C17.434 8.24155 18.285 8.54606 18.8635 9.15555C19.3475 9.65653 19.5975 10.304 19.6135 11.101C19.6135 11.804 19.4651 12.4295 19.168 12.976C18.824 13.6015 18.2071 14.2885 17.3165 15.0385C16.5665 15.648 16.0431 16.3275 15.7461 17.0775C15.4486 17.7965 15.3006 18.711 15.3006 19.8196C15.3006 20.039 15.3711 20.2181 15.5116 20.3586C15.6521 20.4845 15.8236 20.5461 16.0271 20.5461C16.2146 20.5461 16.3786 20.4845 16.5191 20.3586C16.6751 20.2181 16.7536 20.039 16.7536 19.8196C16.7536 18.7265 16.8861 17.883 17.1521 17.2881C17.4171 16.7256 17.9331 16.1321 18.6991 15.5066C19.543 14.7886 20.1521 14.0931 20.5271 13.4206C20.8861 12.7641 21.0661 12.0306 21.0661 11.2176C21.066 9.8435 20.6125 8.77252 19.7065 8.00653Z" stroke="#FB1100" stroke-width="0.5"/>
<path d="M16 25C16.8284 25 17.5 24.3284 17.5 23.5C17.5 22.6716 16.8284 22 16 22C15.1716 22 14.5 22.6716 14.5 23.5C14.5 24.3284 15.1716 25 16 25Z" stroke="#FB1100" stroke-width="0.5"/>
</svg>
