<svg width="737" height="584" fill="none" xmlns="http://www.w3.org/2000/svg"><path fill-rule="evenodd" clip-rule="evenodd" d="M186.87 186.085l-19.556 3.684-8.22 18.135-9.636-17.285-19.84-1.984 13.888-14.735-4.251-19.27 17.855 8.501 17.289-10.201-2.55 19.836 15.021 13.319zM500.056 27.111l6.802-10.484-4.818-11.619 11.904 3.117L523.58.191l.567 12.468 10.77 6.235-11.62 4.534-2.835 12.185-7.936-9.635-12.47 1.133zm186.495 285.925l-15.872-.566-9.353 12.468-4.252-15.019-15.021-5.1 13.037-8.785.284-15.586 12.471 9.635 15.021-4.817-5.385 14.735 9.07 13.035zM101.558 465.492l-18.423-3.967-13.888 13.318-1.984-18.986-16.722-9.068 17.289-7.651 3.401-18.703 12.754 14.169 18.99-2.55-9.637 16.435 8.22 17.003zm579.325 82.745l-13.888.85-7.086 11.902-5.101-12.752-13.605-3.117 10.77-8.784-1.417-13.886 11.904 7.368 12.754-5.384-3.401 13.318 9.07 10.485zm-450.082 31.172l-15.872-5.385-13.321 9.919.283-16.72-13.604-9.634 15.871-4.818 4.819-15.869 9.636 13.602 16.722-.283-9.92 13.319 5.386 15.869zm-35.995-549.18l11.054-11.335-3.118-15.586 14.171 6.8 13.888-7.65-2.267 15.585 11.62 10.769-15.588 2.833-6.519 14.452-7.369-14.168-15.872-1.7zM35.803 292.067l-12.47 1.417-5.952 11.051-5.102-11.618-12.187-1.984 9.07-8.501-1.701-12.469 11.054 6.235 11.053-5.384-2.55 12.185 8.785 9.068zM661.608 84.07l8.22-9.918-3.685-12.469 11.904 4.534 10.77-7.084-.85 12.752 10.203 7.934-12.47 3.4-4.252 12.186-7.085-11.052-12.755-.283zM533.783 203.087l8.786-11.335-4.534-13.602 13.604 4.534 11.337-8.218-.283 14.169 11.62 8.501-13.604 3.967-4.252 13.602-8.219-11.618h-14.455zm109.403 244.836l-23.524.85-12.471 19.553-7.936-21.82-22.674-5.951 18.423-14.452-1.417-23.237 19.273 13.035 21.823-8.501-6.518 22.387 15.021 18.136zM59.895 100.789h-7.086l-4.252 5.951-2.267-6.801-6.802-1.984 5.952-4.25-.284-7.085 5.952 4.25 6.52-2.55-1.985 6.801 4.252 5.668zm657.265 276.29l4.252-5.384-1.701-6.518 6.519 2.551 5.668-3.968-.283 7.085 5.385 4.25-6.802 1.701-2.551 6.517-3.685-5.951-6.802-.283zM403.691 34.48l-7.086-1.418-4.818 5.101-1.134-7.084-6.235-3.117 6.519-3.117 1.133-7.085 4.819 5.1 7.085-.85-3.401 6.235 3.118 6.234zM247.239 476.827l-6.802-1.417-5.102 5.101-1.134-7.085-6.235-3.4 6.519-2.834 1.133-7.084 4.819 5.101 7.085-1.134-3.401 6.234 3.118 6.518zm229.292-18.136l3.118-7.935-4.535-7.367 8.503.85 5.385-6.801 1.984 8.218 7.936 3.117-7.086 4.534-.566 8.501-6.519-5.384-8.22 2.267zM551.64 90.304l-3.968.283-1.984 3.117-1.418-3.4-3.684-.85 2.834-2.55-.283-3.684 3.117 1.983 3.685-1.7-.85 3.684 2.551 3.117zM118.847 317.287l.567-6.801-5.102-4.251 6.519-1.417 2.551-6.234 3.401 5.668 6.802.566-4.535 5.101 1.417 6.518-5.952-2.834-5.668 3.684zm293.347 216.498l-9.07-.283-5.385 7.084-2.267-8.784-8.503-2.834 7.369-4.818.283-9.068 6.802 5.668 8.503-2.55-2.834 8.217 5.102 7.368z" fill="#FFE5E3"/></svg>