<svg width="50" height="50" fill="none" xmlns="http://www.w3.org/2000/svg"><path d="M41.667 36.03l-2.123-1.271a4.176 4.176 0 00-2.14-.592h-3.195a7.537 7.537 0 00-1.937.25L22.648 37a3.356 3.356 0 00-2.266 2.102l-8.466-4.58a3.317 3.317 0 00-2.265-.374 3.13 3.13 0 00-.843.276 3.276 3.276 0 00-1.431 1.334 3.34 3.34 0 00-.441 1.658A3.302 3.302 0 008.583 40.3l15.172 9.077c.66.408 1.418.624 2.194.624H37.69c.525 0 1.044-.099 1.532-.291l2.445-.966V50H50V33.334h-8.333v2.696zm-3.058 12.13a2.508 2.508 0 01-.916.175H25.949c-.47 0-.93-.133-1.328-.382L9.428 38.864a1.658 1.658 0 01-.828-1.447c.001-.292.078-.58.223-.834a1.64 1.64 0 011.133-.795 1.634 1.634 0 011.136.187l9.179 4.96c.01.05.01.1.024.151a3.342 3.342 0 003.222 2.467 8.203 8.203 0 001.373-.245l8.658-2.317-.43-1.61-8.63 2.307c-.38.087-.87.187-.971.196a1.667 1.667 0 01-1.611-1.228 1.525 1.525 0 01-.048-.308s-.007-.202 0-.273a1.685 1.685 0 011.226-1.47l9.62-2.573a5.825 5.825 0 011.505-.198h3.194c.453 0 .897.122 1.284.355l2.98 1.784v8.977l-3.058 1.209zM43.333 35h5v13.334h-5V35zM34.37 6.667l-4.47-4.47A7.448 7.448 0 0024.597 0H14.12c-.647 0-1.284.152-1.863.44l-1.868.934a2.47 2.47 0 01-1.209.262l-.847-.03V0H0v18.333h8.333v-2.5H9.75l.504.334A9.187 9.187 0 0015 17.694v10.64h35V6.666H34.37zm-27.703 10h-5v-15h5v15zm4.51-1.887l-.927-.613H8.333V3.274l.786.028a4.183 4.183 0 002.015-.437L13 1.931a2.505 2.505 0 011.12-.264h10.477a5.794 5.794 0 014.124 1.708l3.292 3.292h-6.876l-2.023-2.023-1.178 1.178 5.887 5.887a1.671 1.671 0 01-2.359 2.369L20.548 9.16l-.584.5a4.417 4.417 0 01-5.617.083l-.483-.391-1.05 1.294.488.396a6.07 6.07 0 001.698.957v4.027a7.514 7.514 0 01-3.823-1.247zM23.03 14l1.257 1.258a3.358 3.358 0 004.709.004 4.217 4.217 0 10.473-.605c.57-.893.671-2.008.273-2.99h11.16A5.014 5.014 0 0045 15.764v3.472a5.014 5.014 0 00-4.097 4.097H24.098A5.014 5.014 0 0020 19.236v-3.472A4.974 4.974 0 0023.031 14zM30 17.5a2.5 2.5 0 115 0 2.5 2.5 0 01-5 0zm18.333 9.167H16.667V12.349a6.06 6.06 0 003.75-.958l1.421 1.421a3.325 3.325 0 01-2.671 1.355h-.834v6.666h.834a3.333 3.333 0 013.333 3.334V25h20v-.833a3.333 3.333 0 013.333-3.334h.834v-6.666h-.834a3.333 3.333 0 01-3.333-3.334V10H28.47l-1.667-1.667h21.53v18.334z" fill="#FA0000"/></svg>