<svg width="50" height="49" fill="none" xmlns="http://www.w3.org/2000/svg"><path d="M40.43 14.236c.54 0 .977-.429.977-.957V2.87c0-1.583-1.314-2.871-2.93-2.871H2.93C1.314 0 0 1.288 0 2.871V46.13C0 47.712 1.314 49 2.93 49h35.548c1.615 0 2.93-1.288 2.93-2.871v-7.05a.967.967 0 00-.977-.958.967.967 0 00-.977.957v7.05a.968.968 0 01-.976.958H2.93a.968.968 0 01-.977-.957V2.87c0-.528.438-.957.977-.957h35.548c.538 0 .976.43.976.957v10.41c0 .528.438.957.977.957z" fill="#FA0000"/><path d="M20.704 5.168c-4.955 0-8.985 3.95-8.985 8.805 0 2.518 1.085 4.793 2.82 6.4a9.051 9.051 0 006.164 2.405 9.051 9.051 0 006.165-2.406c1.735-1.606 2.82-3.88 2.82-6.4 0-4.854-4.03-8.804-8.984-8.804zm0 15.695a7.087 7.087 0 01-4.248-1.404c.859-1.491 2.46-2.424 4.248-2.424 1.787 0 3.389.933 4.247 2.424a7.087 7.087 0 01-4.247 1.404zM19.14 13.59v-.622c0-.845.701-1.531 1.563-1.531.861 0 1.562.687 1.562 1.53v.623c0 .844-.7 1.531-1.562 1.531-.862 0-1.563-.687-1.563-1.531zm7.221 4.468a6.743 6.743 0 00-2.877-2.364c.46-.583.734-1.312.734-2.104v-.622c0-1.9-1.577-3.446-3.515-3.446-1.939 0-3.516 1.546-3.516 3.446v.622c0 .792.275 1.521.735 2.104a6.744 6.744 0 00-2.878 2.364 6.763 6.763 0 01-1.373-4.085c0-3.8 3.154-6.891 7.032-6.891 3.877 0 7.031 3.091 7.031 6.89 0 1.529-.51 2.942-1.373 4.086zm-.384 23.86h-5.273a.967.967 0 00-.977.957c0 .529.437.957.977.957h5.273c.54 0 .977-.428.977-.957a.967.967 0 00-.977-.957zm0-5.359H12.11a.967.967 0 00-.977.957c0 .528.437.957.977.957h13.867c.54 0 .977-.429.977-.957a.967.967 0 00-.977-.957zm0-5.359H12.11a.967.967 0 00-.977.956c0 .529.437.957.977.957h13.867c.54 0 .977-.428.977-.957a.967.967 0 00-.977-.957zM8.629 26.12a.994.994 0 00-1.382 0 .954.954 0 00-.286.677.96.96 0 00.286.677c.183.177.434.28.69.28a.996.996 0 00.692-.28.955.955 0 00.286-.677.954.954 0 00-.286-.677zm0 5.36a.996.996 0 00-.691-.28.996.996 0 00-.69.28.955.955 0 00-.287.676c0 .252.105.499.286.677.183.178.434.28.69.28a.996.996 0 00.692-.28.955.955 0 00.286-.677.954.954 0 00-.286-.676zm0 5.359a.996.996 0 00-.691-.28.996.996 0 00-.69.28.954.954 0 00-.287.677c0 .251.105.498.286.676a.994.994 0 001.382 0 .955.955 0 00.286-.676.954.954 0 00-.286-.677zM25.977 25.84H12.11a.967.967 0 00-.977.957c0 .528.437.957.977.957h13.867c.54 0 .977-.429.977-.957a.967.967 0 00-.977-.957zM47.95 12.472a4.148 4.148 0 00-3.113-.402 4.065 4.065 0 00-2.49 1.873l-12.29 20.86a.947.947 0 00-.124.372l-.865 7.594a.952.952 0 00.482.935.992.992 0 001.067-.058l6.278-4.531a.96.96 0 00.267-.292l12.29-20.86c1.13-1.92.457-4.383-1.502-5.491zM31.256 40.807l.452-3.965 2.827 1.6-3.279 2.365zm4.703-3.77l-3.722-2.106 9.862-16.74 3.722 2.106-9.862 16.74zm11.8-20.031l-.962 1.634-3.721-2.106.962-1.634a2.13 2.13 0 011.305-.98 2.172 2.172 0 011.63.21c.497.28.853.735 1.001 1.278.149.543.073 1.11-.214 1.598z" fill="#FA0000"/></svg>